<svg width="444" height="470" viewBox="0 0 444 470" fill="none" xmlns="http://www.w3.org/2000/svg">
<path d="M67.5283 31.2639C96.6376 2.09432 143.196 -9.05621 180.306 8.1369C215.969 24.6779 239.759 63.7048 277.656 73.8337C294.583 78.3548 312.543 76.4855 329.736 79.822C368.538 87.3535 399.434 122.75 406.339 162.473C413.244 202.195 403.265 246.667 375.389 275.25C347.514 303.832 284.189 333.567 236.748 321.982L176.422 319.471C71.0073 301.659 43.6322 227.311 32.4183 147.312C32.3651 146.888 32.3119 146.475 32.2481 146.062C26.5985 104.862 38.5253 60.4227 67.5283 31.2639Z" fill="#EBEBEB"/>
<path d="M300.148 46.3921C294.69 44.0011 289.508 40.1539 287.157 34.5786C284.093 27.2319 286.848 18.2767 292.423 12.6688C306.467 -1.45954 330.725 2.20296 336.417 22.8195C342.418 44.3163 315.692 53.1954 300.148 46.3921Z" fill="#EBEBEB"/>
<path d="M3.05176e-05 469.363C3.05176e-05 469.515 99.1272 469.645 221.374 469.645C343.62 469.645 442.779 469.515 442.779 469.363C442.779 469.21 343.673 469.08 221.374 469.08C99.074 469.08 3.05176e-05 469.2 3.05176e-05 469.363Z" fill="#263238"/>
<path d="M83.3384 270.62H129.981V327.263H83.3384V270.62Z" fill="#F5F5F5"/>
<path d="M128.375 266.936H339.173V330.839H128.375V266.936Z" fill="#FFC060"/>
<path d="M81.9233 272.304H134.056V266.936H81.9233C81.5778 266.934 81.2355 267.003 80.916 267.137C80.5965 267.271 80.3062 267.469 80.0619 267.719C79.8176 267.968 79.6241 268.265 79.4926 268.591C79.361 268.917 79.294 269.267 79.2954 269.62C79.2954 270.332 79.5723 271.015 80.0651 271.518C80.5579 272.022 81.2263 272.304 81.9233 272.304Z" fill="#FFC060"/>
<path d="M81.9233 330.839H134.056V325.47H81.9233C81.2263 325.47 80.5579 325.753 80.0651 326.257C79.5723 326.76 79.2954 327.443 79.2954 328.155C79.294 328.508 79.361 328.857 79.4926 329.184C79.6241 329.51 79.8176 329.807 80.0619 330.056C80.3062 330.306 80.5965 330.503 80.916 330.638C81.2355 330.772 81.5778 330.841 81.9233 330.839Z" fill="#FFC060"/>
<g opacity="0.4">
<path d="M144.94 266.936H169.847V330.839H144.94V266.936Z" fill="black"/>
</g>
<g opacity="0.4">
<path d="M295.562 266.936H320.469V330.839H295.562V266.936Z" fill="black"/>
</g>
<path d="M83.3383 279.999C83.3383 280.151 93.4351 280.281 105.883 280.281C118.331 280.281 128.428 280.151 128.428 279.999C128.428 279.847 118.331 279.76 105.83 279.76C93.3287 279.76 83.3383 279.836 83.3383 279.999Z" fill="#E0E0E0"/>
<path d="M83.3383 288.454C83.3383 288.617 93.4351 288.737 105.883 288.737C118.331 288.737 128.428 288.617 128.428 288.454C128.428 288.291 118.331 288.172 105.883 288.172C93.4351 288.172 83.3383 288.335 83.3383 288.454Z" fill="#E0E0E0"/>
<path d="M83.3383 298.941C83.3383 299.104 93.4351 299.235 105.883 299.235C118.331 299.235 128.428 299.104 128.428 298.941C128.428 298.778 118.331 298.659 105.883 298.659C93.4351 298.659 83.3383 298.789 83.3383 298.941Z" fill="#E0E0E0"/>
<path d="M83.3383 309.408C83.3383 309.56 93.4351 309.69 105.883 309.69C118.331 309.69 128.428 309.56 128.428 309.408C128.428 309.255 118.331 309.103 105.83 309.103C93.3287 309.103 83.3383 309.245 83.3383 309.408Z" fill="#E0E0E0"/>
<path d="M83.3383 319.862C83.3383 320.025 93.4351 320.145 105.883 320.145C118.331 320.145 128.428 320.025 128.428 319.862C128.428 319.699 118.331 319.58 105.883 319.58C93.4351 319.58 83.3383 319.71 83.3383 319.862Z" fill="#E0E0E0"/>
<g opacity="0.2">
<path d="M183.242 293.192H278.082V304.702H183.242V293.192Z" fill="black"/>
</g>
<path d="M83.8171 332.089H131.173V366.606H83.8171V332.089Z" fill="#FAFAFA"/>
<path d="M130.641 330.828H332.194V367.845H130.641V330.828Z" fill="#455A64"/>
<path d="M132.109 333.339H81.1999C80.8754 333.339 80.5642 333.207 80.3347 332.973C80.1052 332.738 79.9763 332.421 79.9763 332.089C79.9749 331.924 80.0055 331.76 80.0664 331.607C80.1272 331.455 80.2171 331.315 80.3309 331.198C80.4447 331.081 80.58 330.988 80.7292 330.925C80.8783 330.861 81.0383 330.828 81.1999 330.828H132.109V333.339Z" fill="#455A64"/>
<path d="M132.109 365.345H81.1999C80.8754 365.345 80.5642 365.477 80.3347 365.711C80.1052 365.945 79.9763 366.263 79.9763 366.595C79.9763 366.926 80.1052 367.244 80.3347 367.479C80.5642 367.713 80.8754 367.845 81.1999 367.845H132.109V365.345Z" fill="#455A64"/>
<path d="M83.8065 338.642C83.8065 338.794 94.2969 338.925 107.213 338.925C120.129 338.925 130.62 338.794 130.62 338.642C130.62 338.49 120.14 338.36 107.213 338.36C94.2863 338.36 83.8065 338.447 83.8065 338.642Z" fill="#E0E0E0"/>
<path d="M83.8065 345.174C83.8065 345.326 94.2969 345.457 107.213 345.457C120.129 345.457 130.62 345.326 130.62 345.174C130.62 345.022 120.14 344.891 107.213 344.891C94.2863 344.891 83.8065 344.967 83.8065 345.174Z" fill="#E0E0E0"/>
<path d="M83.8065 351.695C83.8065 351.858 94.2969 351.977 107.213 351.977C120.129 351.977 130.62 351.858 130.62 351.695C130.62 351.532 120.14 351.412 107.213 351.412C94.2863 351.412 83.8065 351.543 83.8065 351.695Z" fill="#E0E0E0"/>
<path d="M83.8065 358.226C83.8065 358.389 94.2969 358.509 107.213 358.509C120.129 358.509 130.62 358.389 130.62 358.226C130.62 358.063 120.14 357.944 107.213 357.944C94.2863 357.944 83.8065 358.074 83.8065 358.226Z" fill="#E0E0E0"/>
<path d="M161.783 344.087H300.775V353.749H161.783V344.087Z" fill="#263238"/>
<path d="M76.6249 371.138H124.97V464.7H76.6249V371.138Z" fill="#EBEBEB"/>
<path d="M124.97 367.855H351.876V469.297H124.97V367.855Z" fill="#FFC060"/>
<path d="M72.8479 469.297H131.173V462.776H72.8479C72.0014 462.776 71.1896 463.12 70.591 463.731C69.9924 464.343 69.6561 465.172 69.6561 466.037C69.6561 466.901 69.9924 467.731 70.591 468.342C71.1896 468.953 72.0014 469.297 72.8479 469.297Z" fill="#FFC060"/>
<path d="M131.173 367.855H72.8479C72.0014 367.855 71.1896 368.199 70.591 368.81C69.9924 369.422 69.6561 370.251 69.6561 371.116C69.6561 371.98 69.9924 372.81 70.591 373.421C71.1896 374.033 72.0014 374.376 72.8479 374.376H131.173V367.801V367.855Z" fill="#FFC060"/>
<g opacity="0.4">
<path d="M173.773 367.855L221.501 469.297H181.178L135.929 367.855H173.773Z" fill="white"/>
</g>
<g opacity="0.4">
<path d="M249.057 367.855L296.786 469.297H256.473L211.213 367.855H249.057Z" fill="white"/>
</g>
<path d="M76.6249 383.679C76.6249 383.842 87.4451 383.962 100.798 383.962C114.15 383.962 124.97 383.842 124.97 383.679C124.97 383.516 114.15 383.396 100.798 383.396C87.4451 383.396 76.6249 383.527 76.6249 383.679Z" fill="#E0E0E0"/>
<path d="M76.6249 395.677C76.6249 395.84 87.4451 395.96 100.798 395.96C114.15 395.96 124.97 395.84 124.97 395.677C124.97 395.514 114.15 395.395 100.798 395.395C87.4451 395.395 76.6249 395.525 76.6249 395.677Z" fill="#E0E0E0"/>
<path d="M76.6249 407.686C76.6249 407.839 87.4451 407.969 100.798 407.969C114.15 407.969 124.97 407.839 124.97 407.686C124.97 407.534 114.15 407.404 100.798 407.404C87.4451 407.404 76.6249 407.523 76.6249 407.686Z" fill="#E0E0E0"/>
<path d="M76.6249 419.685C76.6249 419.837 87.4451 419.967 100.798 419.967C114.15 419.967 124.97 419.837 124.97 419.685C124.97 419.533 114.15 419.402 100.798 419.402C87.4451 419.402 76.6249 419.522 76.6249 419.685Z" fill="#E0E0E0"/>
<path d="M76.6249 431.683C76.6249 431.835 87.4451 431.966 100.798 431.966C114.15 431.966 124.97 431.835 124.97 431.683C124.97 431.531 114.15 431.4 100.798 431.4C87.4451 431.4 76.6249 431.531 76.6249 431.683Z" fill="#E0E0E0"/>
<path d="M76.6249 443.681C76.6249 443.833 87.4451 443.964 100.798 443.964C114.15 443.964 124.981 443.866 124.981 443.681C124.981 443.496 114.161 443.399 100.808 443.399C87.4558 443.399 76.6249 443.529 76.6249 443.681Z" fill="#E0E0E0"/>
<path d="M76.6249 455.679C76.6249 455.842 87.4451 455.962 100.798 455.962C114.15 455.962 124.981 455.821 124.981 455.679C124.981 455.538 114.161 455.397 100.808 455.397C87.4558 455.397 76.6249 455.527 76.6249 455.679Z" fill="#E0E0E0"/>
<path d="M105.394 95.2979L120.204 71.0189C120.279 70.8954 120.384 70.7935 120.509 70.7229C120.634 70.6523 120.774 70.6152 120.917 70.6152C121.059 70.6152 121.2 70.6523 121.324 70.7229C121.449 70.7935 121.554 70.8954 121.63 71.0189L136.163 96.689L105.394 95.2979Z" fill="#FFC060"/>
<g opacity="0.3">
<path d="M105.394 95.2979L120.204 71.0189C120.279 70.8954 120.384 70.7935 120.509 70.7229C120.634 70.6523 120.774 70.6152 120.917 70.6152C121.059 70.6152 121.2 70.6523 121.324 70.7229C121.449 70.7935 121.554 70.8954 121.63 71.0189L136.163 96.689L105.394 95.2979Z" fill="black"/>
</g>
<path d="M120.204 72.1707L106.362 95.1999L109.884 94.6347L132.492 90.994L124.066 72.8879L120.204 72.1707Z" fill="#EBEBEB"/>
<path d="M118.725 117.447L105.394 95.2979L139.919 88.7771C140.468 88.6722 141.036 88.7433 141.544 88.9807C142.053 89.218 142.477 89.61 142.759 90.103L162.229 123.794C162.367 124.034 162.447 124.304 162.46 124.582C162.474 124.86 162.421 125.138 162.308 125.391C162.194 125.644 162.022 125.865 161.806 126.035C161.591 126.205 161.338 126.32 161.07 126.369L128.62 132.249L118.725 117.447Z" fill="#FFC060"/>
<path d="M127.939 73.5618L108.777 94.7543L136.599 89.429L127.939 73.5618Z" fill="#EBEBEB"/>
<path d="M136.599 89.4292C136.572 89.3183 136.529 89.2121 136.471 89.114L136.046 88.2555L134.344 84.9951C132.812 82.1586 130.684 78.1918 128.141 73.4425L127.981 73.149L127.758 73.399L115.267 87.1578L108.586 94.5698L109.001 94.9067C113.363 88.5924 117.15 83.1258 119.885 79.1807L123.002 74.5727L123.811 73.3338C123.913 73.1942 124.002 73.045 124.077 72.8882C124.077 72.8882 123.949 73.0077 123.736 73.2794L122.853 74.4749L119.608 78.9742L108.564 94.5915L108.979 94.9393L115.671 87.5491L128.109 73.725H127.726C130.343 78.4308 132.524 82.4194 134.11 85.1798L135.929 88.375L136.418 89.201C136.525 89.3423 136.589 89.4401 136.599 89.4292Z" fill="#263238"/>
<g opacity="0.3">
<path d="M136.216 98.6453C136.514 99.1017 147.834 118.371 147.834 118.371L129.386 121.892L117.14 101.906L136.216 98.6453Z" fill="white"/>
</g>
<path d="M274.996 427.347L264.857 413.816L264.325 413.12L247.047 426.249L263.006 444.203L262.42 462.374C253.515 464.732 252.175 469.275 252.175 469.275H270.698L287.604 436.15L274.996 427.347Z" fill="#455A64"/>
<path d="M287.604 436.15L270.74 469.253H252.217C252.701 468.149 253.43 467.174 254.345 466.406L269.411 465.602L284.933 434.313L287.604 436.15Z" fill="#EBEBEB"/>
<path d="M262.623 454.049C262.761 454.245 263.825 453.625 265.261 453.658C266.697 453.691 267.74 454.31 267.889 454.115C268.038 453.919 267.017 452.843 265.272 452.832C263.527 452.821 262.452 453.897 262.623 454.049Z" fill="#263238"/>
<path d="M262.92 449.539C263.101 449.669 263.931 448.561 265.41 448.257C266.889 447.952 268.059 448.659 268.187 448.463C268.315 448.268 268.027 448.061 267.517 447.768C266.817 447.396 266.013 447.281 265.24 447.442C264.471 447.604 263.778 448.025 263.272 448.637C262.91 449.115 262.825 449.485 262.92 449.539Z" fill="#263238"/>
<path d="M262.793 443.746C262.995 443.855 263.623 442.757 264.921 442.301C266.219 441.844 267.368 442.301 267.464 442.062C267.559 441.823 267.272 441.703 266.761 441.508C266.073 441.259 265.322 441.259 264.633 441.508C263.952 441.756 263.372 442.231 262.984 442.855C262.718 443.355 262.697 443.714 262.793 443.746Z" fill="#263238"/>
<path d="M257.835 439.269C258.058 439.345 258.569 438.269 259.718 437.508C260.867 436.748 262.027 436.628 262.037 436.421C262.048 436.215 260.665 435.878 259.271 436.834C257.877 437.791 257.611 439.236 257.835 439.269Z" fill="#263238"/>
<path d="M255.409 435.378C255.505 435.443 256.122 434.683 257.026 433.4L258.59 431.129C258.953 430.666 259.244 430.15 259.452 429.596C259.561 429.212 259.519 428.798 259.335 428.444C259.226 428.244 259.062 428.081 258.864 427.975C258.665 427.869 258.441 427.824 258.218 427.847C257.566 427.973 256.966 428.295 256.494 428.77C256.057 429.149 255.677 429.593 255.367 430.086C254.843 430.907 254.512 431.84 254.398 432.813C254.208 433.698 254.356 434.624 254.813 435.4C254.818 434.568 254.868 433.737 254.962 432.911C255.228 431.533 255.949 430.29 257.005 429.39C257.367 429.051 257.806 428.808 258.282 428.684C258.35 428.668 258.421 428.675 258.484 428.705C258.548 428.734 258.6 428.784 258.633 428.847C258.694 429.022 258.694 429.214 258.633 429.39C258.444 429.856 258.201 430.298 257.909 430.705C257.431 431.509 256.962 432.303 256.494 433.074C256.023 433.783 255.658 434.56 255.409 435.378Z" fill="#263238"/>
<path d="M254.781 435.943C254.867 435.943 254.781 434.943 253.792 433.77C253.107 433.018 252.201 432.513 251.21 432.333C250.22 432.153 249.2 432.306 248.302 432.77C248.209 432.854 248.135 432.958 248.085 433.074C248.036 433.191 248.012 433.317 248.015 433.444C248.029 433.661 248.107 433.87 248.238 434.041C248.433 434.272 248.659 434.473 248.908 434.639C249.322 434.932 249.76 435.186 250.217 435.4C250.987 435.766 251.81 436.001 252.654 436.096C253.42 436.263 254.218 436.187 254.941 435.878C254.218 435.714 253.486 435.59 252.749 435.509C251.98 435.342 251.236 435.072 250.536 434.704C250.128 434.494 249.737 434.25 249.366 433.976C249.191 433.854 249.031 433.711 248.887 433.552C248.802 433.379 248.823 433.433 248.887 433.379C249.05 433.275 249.23 433.205 249.419 433.172C249.647 433.12 249.878 433.084 250.111 433.063C250.553 433.035 250.997 433.068 251.43 433.161C252.17 433.332 252.857 433.687 253.43 434.194C254.356 435.172 254.632 435.998 254.781 435.943Z" fill="#263238"/>
<path d="M272.868 435.585C272.868 436.03 272.997 436.465 273.239 436.834C273.481 437.204 273.825 437.493 274.228 437.663C274.63 437.833 275.073 437.878 275.5 437.791C275.928 437.704 276.32 437.49 276.628 437.175C276.936 436.861 277.146 436.46 277.231 436.024C277.316 435.587 277.272 435.135 277.105 434.724C276.939 434.313 276.656 433.961 276.294 433.714C275.932 433.467 275.506 433.335 275.071 433.335C274.487 433.335 273.926 433.572 273.513 433.994C273.1 434.416 272.868 434.988 272.868 435.585Z" fill="#EBEBEB"/>
<g opacity="0.3">
<path d="M248.706 428.053L252.26 432.042L267.219 416.913L265.133 414.142L248.706 428.053Z" fill="black"/>
</g>
<path d="M202.531 434.226L204.425 457.234C204.425 457.234 182.168 464.993 182.083 469.275L225.885 469.069L224.374 433.096L202.531 434.226Z" fill="#455A64"/>
<path d="M217.884 454.625C218.312 454.736 218.685 455.005 218.931 455.38C219.177 455.756 219.277 456.211 219.214 456.657C219.121 457.096 218.868 457.482 218.506 457.737C218.145 457.991 217.701 458.095 217.267 458.027C216.81 457.908 216.413 457.62 216.153 457.218C215.893 456.816 215.79 456.329 215.863 455.853C216.005 455.403 216.313 455.026 216.722 454.803C217.131 454.58 217.608 454.528 218.054 454.658" fill="#EBEBEB"/>
<path d="M225.917 469.069L225.768 465.482L184.274 466.493C184.274 466.493 182.072 468.297 182.093 469.275L225.917 469.069Z" fill="#EBEBEB"/>
<path d="M203.712 457.038C203.712 457.255 204.776 457.31 205.84 457.962C206.904 458.614 207.532 459.494 207.723 459.407C207.915 459.32 207.543 458.06 206.213 457.299C204.883 456.538 203.649 456.842 203.712 457.038Z" fill="#263238"/>
<path d="M199.201 459.212C199.201 459.418 200.116 459.744 200.882 460.635C201.648 461.527 201.946 462.494 202.116 462.472C202.287 462.45 202.414 461.211 201.436 460.125C200.457 459.038 199.201 458.994 199.201 459.212Z" fill="#263238"/>
<path d="M196.861 464.95C197.063 464.95 197.307 463.863 196.701 462.711C196.095 461.559 195.073 461.113 194.988 461.298C194.903 461.483 195.552 462.102 196.052 463.07C196.552 464.037 196.648 464.939 196.861 464.95Z" fill="#263238"/>
<path d="M203.851 451.745C203.946 451.941 204.915 451.593 206.127 451.615C207.34 451.637 208.255 451.984 208.404 451.789C208.553 451.593 207.564 450.865 206.138 450.854C204.712 450.843 203.712 451.582 203.851 451.745Z" fill="#263238"/>
<path d="M203.553 447.126C204.281 447.283 205.037 447.242 205.744 447.007C206.526 446.82 207.283 446.539 208 446.17C208.43 445.953 208.842 445.702 209.234 445.42C209.473 445.269 209.688 445.082 209.873 444.866C209.998 444.699 210.065 444.495 210.065 444.284C210.065 444.074 209.998 443.87 209.873 443.703C209.758 443.554 209.611 443.435 209.442 443.356C209.274 443.276 209.09 443.239 208.904 443.247C208.629 443.258 208.357 443.309 208.096 443.399C207.635 443.541 207.186 443.723 206.755 443.942C206.031 444.323 205.367 444.814 204.787 445.398C203.819 446.409 203.51 447.246 203.585 447.289C203.659 447.333 204.149 446.648 205.149 445.801C205.731 445.312 206.371 444.899 207.053 444.572C207.452 444.388 207.865 444.235 208.287 444.116C208.745 443.975 209.149 443.953 209.277 444.116C209.404 444.279 209.33 444.236 209.277 444.377C209.139 444.531 208.981 444.667 208.809 444.779C208.448 445.048 208.071 445.295 207.681 445.518C207.003 445.899 206.29 446.212 205.553 446.453C204.87 446.623 204.201 446.848 203.553 447.126Z" fill="#263238"/>
<path d="M203.84 447.398C203.925 447.398 204.308 446.626 204.319 445.224C204.316 444.395 204.176 443.572 203.904 442.79C203.738 442.326 203.531 441.879 203.287 441.453C203.152 441.162 202.948 440.91 202.694 440.72C202.439 440.53 202.142 440.408 201.829 440.366C201.636 440.386 201.451 440.459 201.296 440.577C201.14 440.696 201.019 440.856 200.946 441.04C200.843 441.308 200.779 441.59 200.755 441.877C200.704 442.382 200.729 442.891 200.829 443.388C200.992 444.221 201.358 444.998 201.893 445.648C202.808 446.735 203.712 446.985 203.723 446.909C203.734 446.833 203.021 446.409 202.319 445.333C201.91 444.708 201.637 444 201.521 443.257C201.462 442.828 201.462 442.393 201.521 441.964C201.574 441.486 201.723 441.095 201.904 441.127C202.085 441.16 202.51 441.453 202.702 441.834C202.941 442.207 203.144 442.604 203.308 443.018C203.581 443.715 203.76 444.446 203.84 445.192C203.915 446.539 203.712 447.376 203.84 447.398Z" fill="#263238"/>
<path d="M113.703 124.685C113.277 123.396 113.33 121.992 113.852 120.74C115.661 116.393 119.917 106.612 121.459 106.883C122.821 107.133 123.821 109.785 122.268 112.708L127.279 108.361C127.503 108.164 127.781 108.043 128.076 108.012C128.37 107.982 128.666 108.044 128.925 108.191C129.183 108.338 129.392 108.562 129.522 108.833C129.652 109.105 129.697 109.41 129.652 109.709C129.526 110.367 129.318 111.006 129.035 111.611C127.481 114.98 123.162 118.132 123.162 118.132L131.886 118.186C131.886 118.186 133.514 120.512 130.524 122.077C129.857 122.41 129.136 122.616 128.396 122.685L123.885 123.153C123.885 123.153 132.035 132.358 132.311 133.216C132.711 134.596 132.953 136.018 133.035 137.455L148.675 155.224L144.494 182.242L116.235 132.249L113.703 124.685Z" fill="#B78876"/>
<path d="M115.969 120.62C116.044 120.675 116.331 120.251 116.948 119.773C117.766 119.17 118.709 118.769 119.704 118.599C120.721 118.437 121.751 118.379 122.779 118.425C123.219 118.483 123.666 118.457 124.098 118.349C124.098 118.273 123.619 118.143 122.811 118.023C121.753 117.855 120.676 117.855 119.619 118.023C118.532 118.199 117.52 118.693 116.704 119.447C116.086 120.077 115.916 120.599 115.969 120.62Z" fill="#AA6550"/>
<path d="M115.831 117.827C117.112 117.157 118.303 116.321 119.374 115.338C120.56 114.504 121.633 113.514 122.566 112.393C121.284 113.072 120.091 113.912 119.012 114.893C117.835 115.731 116.767 116.716 115.831 117.827Z" fill="#AA6550"/>
<path d="M192.967 251.068C192.733 251.068 191.903 304.321 191.562 328.307C191.456 335.861 193.361 343.303 197.073 349.836L247.983 441.193L277.23 416.338L229.938 334.697L247.334 248.645L212.862 218.367L192.967 251.068Z" fill="#263238"/>
<path d="M168.23 240.19C168.379 243.254 195.892 440.747 195.892 440.747L229.938 438.269L217.448 238.961L168.23 240.19Z" fill="#263238"/>
<path d="M196.744 254.046C196.744 254.046 196.744 254.231 196.68 254.568C196.616 254.905 196.595 255.437 196.531 256.089C196.424 257.459 196.254 259.426 196.052 261.958C195.658 267.077 195.084 274.434 194.392 283.52C193.701 292.606 192.945 303.485 192.073 315.526C191.881 318.548 191.683 321.634 191.477 324.786C191.392 326.362 191.254 327.97 191.307 329.589C191.352 331.232 191.508 332.87 191.775 334.491C192.325 337.817 193.32 341.049 194.733 344.098C195.435 345.652 196.275 347.13 197.095 348.641L199.574 353.173L233.705 415.479C238.088 423.412 241.642 429.846 244.099 434.324C245.334 436.497 246.291 438.247 246.961 439.432L247.706 440.758L247.983 441.192C247.983 441.192 247.919 441.029 247.759 440.725L247.057 439.377L244.291 434.215L234.045 415.283C225.342 399.296 213.33 377.245 200.052 352.901C199.223 351.38 198.403 349.858 197.573 348.358C196.744 346.859 195.914 345.381 195.233 343.859C193.842 340.854 192.858 337.669 192.307 334.393C192.044 332.801 191.891 331.192 191.849 329.578C191.786 327.981 191.924 326.394 191.998 324.818C192.197 321.667 192.392 318.584 192.584 315.57C193.413 303.517 194.158 292.671 194.775 283.553C195.392 274.434 195.914 267.099 196.265 261.969C196.424 259.448 196.552 257.47 196.648 256.1C196.648 255.448 196.712 254.937 196.733 254.568C196.754 254.198 196.744 254.046 196.744 254.046Z" fill="#455A64"/>
<path d="M220.012 347.446C220.248 347.448 220.482 347.408 220.703 347.326C221.321 347.166 221.92 346.94 222.491 346.652C224.386 345.695 226.034 344.295 227.3 342.565C228.567 340.835 229.416 338.825 229.779 336.697C229.885 336.055 229.928 335.403 229.907 334.752C229.907 334.295 229.907 334.045 229.821 334.045C229.736 334.045 229.726 335.056 229.396 336.621C228.942 338.65 228.077 340.558 226.856 342.224C225.636 343.89 224.087 345.277 222.31 346.294C220.938 347.065 219.991 347.348 220.012 347.446Z" fill="#455A64"/>
<path d="M216.16 341.5C216.979 341.662 217.821 341.662 218.639 341.5C220.634 341.223 222.554 340.543 224.289 339.501C226.023 338.461 227.541 337.083 228.757 335.447C229.293 334.806 229.708 334.069 229.981 333.273C229.896 333.273 229.417 334.056 228.449 335.23C225.914 338.292 222.43 340.378 218.576 341.142C217.107 341.381 216.16 341.403 216.16 341.5Z" fill="#455A64"/>
<path d="M240.163 256.937C240.163 256.937 239.929 257.241 239.344 257.513C238.924 257.678 238.474 257.747 238.026 257.715C237.577 257.683 237.141 257.551 236.748 257.328C235.563 256.615 234.441 255.797 233.396 254.883C232.173 253.883 230.875 252.71 229.555 251.481C227.318 249.31 225.232 246.982 223.31 244.515C221.842 242.624 221.001 241.385 220.938 241.439C221.056 241.773 221.221 242.088 221.427 242.374C221.767 242.95 222.299 243.776 223.002 244.765C224.845 247.326 226.91 249.712 229.172 251.894C230.502 253.166 231.832 254.307 233.077 255.296C234.166 256.212 235.342 257.013 236.588 257.687C237.031 257.913 237.519 258.03 238.014 258.03C238.509 258.03 238.997 257.913 239.439 257.687C240.057 257.318 240.184 256.937 240.163 256.937Z" fill="#455A64"/>
<path d="M221.204 255.296C221.539 256.366 221.992 257.395 222.555 258.361C223.767 260.797 225.428 262.971 227.449 264.762C229.536 266.565 232.164 267.585 234.896 267.653C235.711 267.665 236.522 267.548 237.301 267.305C237.595 267.239 237.874 267.113 238.12 266.936C237.07 267.153 236 267.258 234.928 267.251C232.33 267.064 229.856 266.041 227.864 264.327C225.901 262.57 224.243 260.487 222.959 258.165C222.427 257.176 221.841 256.218 221.204 255.296Z" fill="#455A64"/>
<path d="M168.23 240.19C168.23 240.19 194.509 252.72 203.936 248.406C213.362 244.091 219.533 234.136 226.353 236.451C233.173 238.766 243.578 240.798 247.153 250.721C247.914 249.882 248.507 248.899 248.895 247.827C249.284 246.754 249.462 245.614 249.419 244.471C249.419 240.603 246.227 235.353 246.227 235.353L250.483 190.512L250.302 115.11C250.302 115.11 242.982 103.97 223.161 104.633L195.786 108.655C195.786 108.655 181.816 113.002 177.922 120.272C174.028 127.543 175.646 179.481 175.646 179.481C175.646 179.481 166.985 229.865 166.985 233.821C166.936 236.013 167.353 238.189 168.209 240.2" fill="#FFC060"/>
<path d="M152.643 154.485L163.932 164.766L177.912 120.283L189.615 147.073L184.891 190.545C184.521 193.944 183.136 197.145 180.925 199.713C178.713 202.281 175.782 204.093 172.528 204.901C169.97 205.533 167.3 205.524 164.745 204.875C162.191 204.226 159.827 202.956 157.857 201.173L145.941 190.762C145.098 190.035 144.454 189.097 144.072 188.04C143.689 186.983 143.582 185.842 143.759 184.73L148.196 156.126C148.266 155.635 148.465 155.173 148.772 154.789C149.079 154.405 149.482 154.113 149.938 153.944C150.395 153.776 150.888 153.737 151.364 153.832C151.84 153.927 152.283 154.153 152.643 154.485Z" fill="#FFC060"/>
<path d="M238.141 142.443C238.141 143.432 243.387 191.99 243.387 191.99L221.161 241.103C223.289 245.732 227.459 249.938 232.045 254.046C232.045 254.046 237.726 248.743 238.056 237.451C238.056 237.451 263.314 207.14 265.91 199.174C268.506 191.208 261.356 136.803 261.356 136.803L238.141 142.443Z" fill="#B78876"/>
<path d="M181.678 150.898C181.785 151.248 181.939 151.581 182.136 151.887C182.466 152.507 182.955 153.387 183.572 154.474C184.266 155.767 185.026 157.023 185.849 158.234C186.36 158.968 187.007 159.592 187.753 160.071C188.581 160.569 189.517 160.849 190.477 160.886C192.308 160.926 194.1 160.346 195.573 159.234C196.744 158.322 197.761 157.221 198.584 155.974C199.146 155.161 199.661 154.316 200.127 153.442C200.324 153.138 200.482 152.809 200.595 152.463C200.51 152.409 199.733 153.746 198.276 155.724C197.431 156.883 196.423 157.908 195.286 158.767C193.89 159.782 192.212 160.312 190.498 160.277C189.632 160.249 188.787 159.999 188.041 159.549C187.346 159.112 186.74 158.544 186.253 157.876C185.296 156.582 184.583 155.256 183.902 154.213C183.221 153.17 182.7 152.311 182.317 151.735C182.14 151.43 181.925 151.149 181.678 150.898Z" fill="#263238"/>
<path d="M165.304 191.175C165.487 190.869 165.63 190.54 165.73 190.197C166.067 189.277 166.348 188.337 166.57 187.382C168.098 181.035 167.769 174.369 165.623 168.211C165.302 167.288 164.929 166.384 164.506 165.505C164.373 165.171 164.198 164.857 163.985 164.57C163.889 164.57 164.528 165.994 165.251 168.341C166.193 171.394 166.754 174.556 166.921 177.753C167.069 180.952 166.826 184.157 166.198 187.295C165.698 189.697 165.208 191.142 165.304 191.175Z" fill="#263238"/>
<path d="M159.357 182.274C159.913 181.56 160.374 180.775 160.729 179.937C162.652 175.99 163.778 171.688 164.038 167.287C164.154 166.385 164.154 165.472 164.038 164.57C163.854 165.454 163.74 166.352 163.698 167.254C163.459 169.411 163.068 171.546 162.527 173.645C161.96 175.736 161.249 177.785 160.399 179.774C159.99 180.579 159.641 181.415 159.357 182.274Z" fill="#263238"/>
<path d="M182.434 160.006C182.434 160.006 182.327 160.169 182.189 160.484C181.984 160.958 181.806 161.445 181.657 161.94C181.091 163.765 180.853 165.68 180.955 167.592C181.096 170.469 182.196 173.211 184.072 175.362C185.181 176.641 186.57 177.636 188.126 178.264C189.819 178.937 191.666 179.096 193.445 178.72C195.228 178.376 196.861 177.472 198.116 176.134C199.227 174.854 200 173.305 200.361 171.634C200.692 170.162 200.906 168.665 200.999 167.157C201.106 165.755 201.212 164.451 201.308 163.244C201.467 160.929 201.595 159.017 201.701 157.593C201.701 156.974 201.755 156.506 201.776 156.05C201.8 155.869 201.8 155.687 201.776 155.506C201.725 155.68 201.693 155.858 201.68 156.039C201.68 156.452 201.563 156.963 201.499 157.571C201.35 158.995 201.159 160.897 200.925 163.212C200.808 164.418 200.691 165.722 200.552 167.113C200.439 168.578 200.214 170.031 199.882 171.461C199.536 173.038 198.804 174.5 197.754 175.71C196.572 176.957 195.041 177.8 193.371 178.123C191.705 178.467 189.978 178.32 188.392 177.699C186.915 177.108 185.592 176.174 184.53 174.971C182.706 172.911 181.612 170.286 181.423 167.515C181.284 165.644 181.457 163.763 181.934 161.951C182.178 160.712 182.434 160.027 182.434 160.006Z" fill="#263238"/>
<g opacity="0.2">
<path d="M236.258 207.727C235.854 204.188 235.003 200.718 233.726 197.402C232.194 193.283 230.194 189.197 230.13 184.785C230.218 182.008 230.698 179.259 231.556 176.623L239.312 148.073C239.61 155.448 239.904 162.831 240.195 170.222C240.427 172.018 240.146 173.845 239.386 175.482C238.237 177.395 235.886 178.231 234.577 180.025C234.079 180.722 233.754 181.532 233.63 182.386C233.506 183.239 233.586 184.111 233.864 184.926C234.439 186.545 235.865 186.958 237.492 187.36C238.235 187.559 238.988 187.715 239.748 187.828C240.812 188.002 242.472 187.752 242.94 188.784C244.227 191.349 242.855 192.903 242.312 194.131C239.844 199.728 236.216 207.727 236.216 207.727" fill="black"/>
</g>
<path d="M245.749 111.306C245.749 111.306 268.613 123.109 271.804 186.23C271.857 187.245 271.683 188.26 271.296 189.196C270.909 190.133 270.318 190.968 269.57 191.637C268.821 192.307 267.933 192.795 266.973 193.063C266.012 193.331 265.005 193.373 264.027 193.186C254.632 191.36 240.397 188.534 240.493 188.143C240.62 187.567 235.173 132.597 235.173 132.597L245.749 111.306Z" fill="#FFC060"/>
<path d="M235.631 131.619C235.631 131.619 235.631 131.912 235.631 132.466C235.631 133.021 235.631 133.836 235.631 134.879C235.631 136.977 235.801 140.02 236.045 143.769C236.29 147.518 236.663 151.974 237.173 156.908C237.439 159.375 237.726 161.962 238.014 164.646C238.173 165.994 238.333 167.353 238.503 168.744C238.673 170.135 239.078 171.537 239.29 172.906C239.413 173.574 239.413 174.259 239.29 174.927C239.134 175.564 238.819 176.148 238.375 176.623C237.503 177.601 236.248 178.112 235.184 179.101C234.232 180.103 233.62 181.39 233.439 182.774C233.343 183.437 233.343 184.111 233.439 184.774C233.461 185.46 233.74 186.112 234.22 186.593C234.699 187.075 235.341 187.35 236.014 187.36L237.737 187.697L241.014 188.36L246.823 189.556L255.335 191.371L256.675 191.642L257.207 191.751H257.292C257.292 191.751 257.292 191.501 257.292 191.621H257.175H256.973C256.705 191.548 256.431 191.504 256.154 191.49C256.408 191.595 256.672 191.675 256.941 191.729H257.154H257.271C257.271 191.849 257.271 191.566 257.271 191.599H257.207L256.675 191.469L255.345 191.142L246.834 189.154L240.961 187.849L237.684 187.154L235.96 186.795C235.459 186.768 234.975 186.594 234.567 186.295C234.231 185.809 234.004 185.253 233.903 184.667C233.802 184.081 233.829 183.479 233.981 182.905C234.151 181.641 234.71 180.464 235.577 179.546C236.482 178.655 237.79 178.134 238.769 177.047C239.285 176.501 239.652 175.826 239.833 175.09C239.971 174.355 239.971 173.598 239.833 172.863C239.61 171.406 239.163 170.091 239.046 168.711C238.929 167.331 238.716 165.961 238.556 164.625C238.248 161.951 237.961 159.365 237.673 156.898C237.141 151.963 236.726 147.518 236.439 143.78C236.152 140.041 235.96 137.009 235.843 134.912L235.716 132.499C235.719 132.203 235.691 131.908 235.631 131.619Z" fill="#263238"/>
<path d="M245.025 170.319C245.032 170.575 245.078 170.828 245.163 171.069C245.228 171.36 245.321 171.644 245.44 171.917C245.58 172.29 245.743 172.653 245.929 173.004C246.4 173.926 246.986 174.781 247.674 175.547C248.522 176.475 249.484 177.286 250.536 177.96C251.6 178.618 252.745 179.13 253.941 179.481C254.918 179.758 255.927 179.904 256.941 179.916C257.331 179.945 257.722 179.945 258.112 179.916C258.402 179.896 258.69 179.853 258.973 179.785C259.224 179.751 259.468 179.678 259.697 179.568C259.697 179.459 258.633 179.677 256.962 179.568C255.989 179.498 255.026 179.319 254.09 179.035C252.948 178.665 251.853 178.162 250.824 177.536C249.814 176.884 248.882 176.114 248.047 175.243C247.369 174.52 246.773 173.721 246.27 172.862C245.408 171.33 245.131 170.287 245.025 170.319Z" fill="#263238"/>
<g opacity="0.2">
<path d="M220.342 226.637C209.702 233.082 196.658 234.625 184.412 232.723C182.382 232.498 180.406 231.913 178.571 230.995C177.661 230.525 176.862 229.857 176.23 229.038C175.598 228.22 175.148 227.271 174.912 226.257C174.708 225.232 174.857 224.167 175.334 223.242C175.811 222.317 176.586 221.589 177.529 221.182C179.476 220.508 181.54 221.595 183.38 222.54C195.016 228.476 208.376 229.852 220.938 226.409" fill="black"/>
</g>
<path d="M170.73 227.594C170.869 227.731 171.022 227.851 171.188 227.952C171.507 228.17 171.954 228.528 172.592 228.898C174.356 229.982 176.224 230.878 178.167 231.571C184.638 233.759 191.519 234.38 198.265 233.386C204.964 232.354 211.527 230.553 217.831 228.018C220.257 227.083 222.204 226.29 223.544 225.724L225.087 225.061C225.269 224.99 225.444 224.899 225.608 224.79C225.416 224.827 225.227 224.881 225.044 224.953L223.47 225.518L217.692 227.637C211.386 230.055 204.85 231.792 198.19 232.821C191.523 233.802 184.724 233.245 178.295 231.191C176.36 230.534 174.487 229.701 172.699 228.702C171.432 228.018 170.73 227.594 170.73 227.594Z" fill="#263238"/>
<g opacity="0.2">
<path d="M171.337 205.086C168.145 201.826 168.145 195.946 168.783 191.371C169.422 186.795 171.156 182.405 171.762 177.808C172.337 173.46 171.922 169.015 172.113 164.614C172.305 160.212 173.231 155.626 176.029 152.29C177.681 170.033 176.09 187.936 171.337 205.086Z" fill="black"/>
</g>
<g opacity="0.2">
<path d="M201.584 157.332C202.074 160.223 201.585 163.255 201.829 166.211C202.164 169.161 202.164 172.141 201.829 175.091C201.481 178.067 200.14 180.831 198.031 182.915C196.969 183.934 195.649 184.631 194.221 184.926C192.793 185.222 191.312 185.105 189.945 184.589C188.62 183.932 187.521 182.88 186.791 181.573C186.062 180.266 185.737 178.764 185.859 177.264C187.781 178.224 189.92 178.637 192.052 178.46C194.19 178.276 196.186 177.293 197.659 175.699C199.638 173.203 200.736 170.098 200.776 166.885C200.978 163.712 201.361 160.462 201.616 157.332" fill="black"/>
</g>
<path d="M237.099 149.181C237.469 149.32 237.855 149.408 238.248 149.442C238.993 149.562 240.067 149.725 241.44 149.888C244.942 150.367 248.491 150.367 251.994 149.888C255.535 149.392 258.877 147.923 261.665 145.638C262.495 144.937 263.239 144.134 263.878 143.248C264.126 142.934 264.33 142.586 264.484 142.215C263.557 143.347 262.532 144.391 261.42 145.334C258.629 147.462 255.358 148.838 251.909 149.334C248.45 149.785 244.951 149.829 241.482 149.464L238.29 149.203C237.895 149.149 237.495 149.141 237.099 149.181Z" fill="#FAFAFA"/>
<path d="M238.599 157.528C238.958 157.709 239.336 157.848 239.727 157.941C240.174 158.086 240.628 158.206 241.088 158.299C241.62 158.408 242.227 158.56 242.918 158.647C244.521 158.891 246.14 159 247.759 158.973C249.744 158.92 251.72 158.687 253.664 158.278C255.602 157.833 257.496 157.211 259.324 156.419C260.804 155.762 262.227 154.981 263.58 154.083C264.165 153.724 264.644 153.322 265.102 152.996C265.474 152.718 265.829 152.417 266.165 152.094C266.486 151.848 266.775 151.563 267.027 151.246C266.953 151.159 265.676 152.333 263.335 153.746C261.971 154.576 260.549 155.302 259.08 155.919C255.465 157.453 251.608 158.304 247.696 158.43C246.104 158.48 244.511 158.411 242.929 158.223C240.259 157.919 238.631 157.419 238.599 157.528Z" fill="#FAFAFA"/>
<path d="M202.446 156.17C202.446 156.322 210.17 156.246 219.682 155.996C229.194 155.746 236.918 155.42 236.907 155.257C236.897 155.094 229.194 155.181 219.671 155.431C210.149 155.68 202.446 156.007 202.446 156.17Z" fill="#FAFAFA"/>
<path d="M201.34 164.94C201.795 165.142 202.269 165.295 202.755 165.396C203.67 165.657 205.01 165.972 206.691 166.309C211.058 167.167 215.491 167.622 219.937 167.668C224.386 167.708 228.83 167.344 233.215 166.581C234.896 166.276 236.248 165.994 237.163 165.744C237.651 165.653 238.128 165.511 238.588 165.32C238.094 165.347 237.603 165.416 237.12 165.527C236.194 165.711 234.833 165.94 233.152 166.179C224.391 167.476 215.487 167.381 206.755 165.896C205.085 165.613 203.734 165.353 202.797 165.157C202.318 165.042 201.831 164.97 201.34 164.94Z" fill="#FAFAFA"/>
<path d="M181.37 163.331C181.438 163.619 181.557 163.892 181.721 164.136C182.132 164.831 182.662 165.446 183.285 165.95C185.401 167.578 188.048 168.313 190.679 168.005C193.251 167.649 195.722 166.749 197.935 165.364C198.885 164.867 199.774 164.258 200.584 163.549C199.611 163.976 198.666 164.466 197.754 165.016C195.539 166.263 193.12 167.088 190.615 167.45C188.107 167.75 185.578 167.109 183.498 165.646C182.692 164.973 181.977 164.194 181.37 163.331Z" fill="#FAFAFA"/>
<path d="M176.561 156.658C177.414 157.123 178.345 157.422 179.306 157.539C180.227 157.833 181.195 157.944 182.157 157.865C181.304 157.397 180.373 157.099 179.412 156.984C178.491 156.69 177.523 156.579 176.561 156.658Z" fill="#FAFAFA"/>
<path d="M166.272 157.006C167.783 158.1 169.452 158.943 171.22 159.506C172.914 160.233 174.709 160.687 176.539 160.854C176.539 160.691 174.199 160.038 171.369 158.973C168.539 157.908 166.347 156.865 166.272 157.006Z" fill="#FAFAFA"/>
<path d="M169.666 146.595C170.722 147.027 171.816 147.354 172.933 147.573C173.996 147.985 175.098 148.287 176.22 148.475C174.271 147.189 171.986 146.534 169.666 146.595Z" fill="#FAFAFA"/>
<path d="M175.465 142.617C175.441 142.83 175.441 143.045 175.465 143.258L175.624 145.084C175.699 145.877 175.784 146.845 175.858 147.975C175.933 149.105 176.05 150.388 176.103 151.8C176.284 154.648 176.369 158.028 176.39 161.788C176.412 165.548 176.273 169.689 176.018 174.014C175.763 178.34 175.316 182.459 174.858 186.197C174.401 189.936 173.848 193.273 173.316 196.066C173.071 197.468 172.805 198.717 172.582 199.826C172.358 200.934 172.167 201.891 171.986 202.662C171.805 203.434 171.709 203.988 171.603 204.456C171.543 204.66 171.51 204.872 171.507 205.086C171.599 204.892 171.667 204.688 171.709 204.477L172.199 202.717C172.411 201.945 172.645 201 172.89 199.891C173.135 198.783 173.433 197.533 173.699 196.142C174.284 193.349 174.826 190.001 175.358 186.263C175.89 182.524 176.284 178.394 176.571 174.058C176.859 169.722 176.922 165.559 176.901 161.788C176.88 158.017 176.731 154.626 176.497 151.779C176.412 150.355 176.273 149.073 176.167 147.942C176.061 146.812 175.944 145.845 175.837 145.062C175.731 144.28 175.646 143.715 175.582 143.247C175.57 143.033 175.531 142.821 175.465 142.617Z" fill="#263238"/>
<g opacity="0.2">
<path d="M198.68 155.376C197.075 156.421 195.242 157.042 193.344 157.185C191.446 157.327 189.543 156.986 187.806 156.191C187.404 155.973 186.975 155.812 186.53 155.713C186.307 155.672 186.077 155.693 185.865 155.776C185.653 155.858 185.467 155.998 185.328 156.18C185.207 156.475 185.174 156.8 185.235 157.114C185.296 157.427 185.446 157.715 185.668 157.941C186.498 158.939 187.59 159.674 188.815 160.059C190.04 160.444 191.348 160.463 192.584 160.114C195.058 159.354 197.165 157.676 198.488 155.409" fill="black"/>
</g>
<path d="M218.607 62.5419C219.259 60.0722 219.666 57.5417 219.82 54.9887C219.982 52.4177 219.39 49.8559 218.118 47.631C217.475 46.5292 216.58 45.604 215.508 44.9355C214.437 44.267 213.222 43.8754 211.969 43.7947C210.426 43.7947 208.872 44.3054 207.351 44.0229C205.596 43.6968 204.223 42.3383 202.723 41.3494C200.363 39.7752 197.565 39.0311 194.754 39.2301C193.293 39.3003 191.882 39.7983 190.69 40.6647C190.09 41.0866 189.603 41.6564 189.276 42.3213C188.949 42.9862 188.791 43.7247 188.817 44.4685C187.041 44.1145 185.228 43.9976 183.423 44.1207C181.602 44.2601 179.906 45.1222 178.699 46.5225C178.121 47.233 177.779 48.1134 177.723 49.0358C177.668 49.9582 177.902 50.8747 178.391 51.6522C177.576 51.4168 176.704 51.4961 175.943 51.8749C175.182 52.2538 174.583 52.9057 174.263 53.7062C173.975 54.5257 173.923 55.412 174.111 56.2609C174.3 57.1099 174.721 57.8863 175.326 58.499C176.835 59.7914 178.741 60.4994 180.71 60.4987C182.487 60.5263 184.249 60.1553 185.87 59.4119" fill="#263238"/>
<path d="M212.703 120.131C210.959 120.545 209.148 120.574 207.392 120.216C205.636 119.859 203.976 119.122 202.52 118.057C201.065 116.991 199.849 115.621 198.954 114.037C198.059 112.453 197.505 110.692 197.329 108.872C196.924 104.731 196.573 101.264 196.499 100.71C196.499 100.71 186.317 100.906 184.455 90.8095C182.593 80.7131 180.327 57.1188 180.327 57.1188C185.536 53.6377 191.56 51.6402 197.777 51.3326C203.994 51.025 210.179 52.4185 215.692 55.369L217.363 56.2602L222.374 106.253C222.697 109.373 221.893 112.507 220.111 115.063C218.33 117.619 215.695 119.422 212.703 120.131Z" fill="#B78876"/>
<path d="M196.488 100.569C201.077 99.8394 205.348 97.7278 208.755 94.5044C208.755 94.5044 206.957 102.34 196.914 103.199L196.488 100.569Z" fill="#AA6550"/>
<path d="M217.969 67.0086C218.129 66.9 224.427 63.7482 225.417 70.6929C226.406 77.6375 219.352 77.2137 219.31 77.0072C219.267 76.8007 217.969 67.0086 217.969 67.0086Z" fill="#B78876"/>
<path d="M221.001 74.0726C221.001 74.0726 221.129 74.1378 221.342 74.203C221.642 74.2852 221.962 74.2463 222.236 74.0944C222.636 73.7451 222.938 73.293 223.11 72.7848C223.282 72.2766 223.318 71.7307 223.214 71.2035C223.155 70.6037 222.958 70.0267 222.64 69.519C222.542 69.3047 222.394 69.1189 222.208 68.9784C222.022 68.8379 221.805 68.7472 221.576 68.7147C221.435 68.6983 221.293 68.7327 221.174 68.8121C221.056 68.8916 220.968 69.0109 220.927 69.1494C220.863 69.3559 220.927 69.4972 220.927 69.5081C220.927 69.519 220.767 69.4103 220.789 69.1168C220.799 68.9381 220.87 68.7688 220.991 68.6386C221.16 68.4716 221.383 68.3748 221.618 68.3669C221.906 68.3853 222.185 68.4776 222.429 68.6353C222.672 68.7929 222.873 69.0109 223.012 69.269C223.391 69.8272 223.625 70.4739 223.693 71.1491C223.813 71.7638 223.753 72.4011 223.521 72.9811C223.288 73.5611 222.893 74.058 222.384 74.4095C222.21 74.496 222.019 74.541 221.826 74.541C221.632 74.541 221.441 74.496 221.267 74.4095C221.033 74.2356 220.98 74.0835 221.001 74.0726Z" fill="#AA6550"/>
<path d="M185.338 72.6707C185.401 73.0472 185.605 73.3839 185.907 73.6092C186.209 73.8345 186.585 73.9305 186.955 73.877C187.137 73.8609 187.315 73.8075 187.476 73.7199C187.638 73.6324 187.78 73.5125 187.895 73.3675C188.01 73.2225 188.096 73.0552 188.146 72.8758C188.197 72.6963 188.212 72.5083 188.19 72.3229C188.132 71.9445 187.931 71.6042 187.631 71.3748C187.331 71.1453 186.955 71.0448 186.583 71.0948C186.399 71.1123 186.22 71.1673 186.057 71.2566C185.895 71.3458 185.751 71.4675 185.635 71.6144C185.519 71.7613 185.433 71.9304 185.382 72.1118C185.331 72.2933 185.316 72.4833 185.338 72.6707Z" fill="#263238"/>
<path d="M184.678 71.0947C184.891 71.2577 185.817 70.247 187.349 70.0079C188.881 69.7688 190.115 70.3122 190.254 70.0948C190.392 69.8775 190.083 69.6819 189.53 69.4102C188.792 69.0635 187.967 68.9573 187.168 69.1059C186.363 69.226 185.617 69.607 185.04 70.1927C184.679 70.6274 184.561 70.9969 184.678 71.0947Z" fill="#263238"/>
<path d="M200.106 70.0082C200.168 70.3855 200.372 70.7231 200.674 70.9502C200.975 71.1772 201.351 71.2759 201.723 71.2254C201.905 71.2079 202.083 71.1532 202.244 71.0645C202.406 70.9758 202.548 70.855 202.663 70.7091C202.778 70.5632 202.864 70.3952 202.914 70.2151C202.965 70.035 202.979 69.8464 202.957 69.6604C202.897 69.284 202.695 68.9464 202.395 68.7192C202.095 68.492 201.721 68.393 201.35 68.4432C201.167 68.4608 200.99 68.5155 200.828 68.604C200.666 68.6925 200.522 68.8132 200.407 68.9589C200.291 69.1046 200.204 69.2724 200.153 69.4526C200.101 69.6328 200.085 69.8216 200.106 70.0082Z" fill="#263238"/>
<path d="M199.701 68.6712C199.903 68.8342 200.84 67.8344 202.361 67.5844C203.883 67.3345 205.138 67.8887 205.266 67.6714C205.393 67.454 205.095 67.2692 204.553 66.9976C203.814 66.6415 202.984 66.5312 202.18 66.6824C201.394 66.8114 200.667 67.1919 200.106 67.7692C199.701 68.2365 199.595 68.606 199.701 68.6712Z" fill="#263238"/>
<path d="M196.148 81.2023C195.3 81.088 194.442 81.088 193.594 81.2023C193.201 81.2023 192.818 81.2023 192.711 80.9523C192.586 80.5567 192.586 80.1308 192.711 79.7351C192.913 78.6483 193.126 77.6267 193.339 76.4747C194.201 71.8885 194.754 68.139 194.573 68.1064C194.392 68.0738 193.509 71.7689 192.69 76.3552C192.488 77.442 192.286 78.5288 192.105 79.6156C191.946 80.1398 191.968 80.7039 192.169 81.2132C192.249 81.3447 192.358 81.4554 192.487 81.5365C192.616 81.6176 192.762 81.6669 192.913 81.6805C193.136 81.709 193.361 81.709 193.584 81.6805C194.455 81.6317 195.316 81.4711 196.148 81.2023Z" fill="#263238"/>
<path d="M200.818 81.4738C200.563 81.4738 200.818 83.1909 199.637 84.6473C198.456 86.1036 196.637 86.2231 196.669 86.4622C196.701 86.7013 197.116 86.723 197.861 86.6035C198.834 86.4496 199.721 85.9445 200.361 85.1798C200.973 84.4505 201.289 83.5095 201.244 82.5497C201.18 81.8325 200.925 81.4412 200.818 81.4738Z" fill="#263238"/>
<path d="M184.774 68.2259C185.104 68.5302 186.083 67.976 187.338 67.7369C188.594 67.4978 189.711 67.5521 189.892 67.1391C189.977 66.9435 189.743 66.6175 189.222 66.3675C188.527 66.0784 187.763 66.0067 187.028 66.1615C186.293 66.3163 185.62 66.6906 185.093 67.2369C184.71 67.6825 184.625 68.0738 184.774 68.2259Z" fill="#263238"/>
<path d="M200.712 62.6939C200.914 62.8569 201.297 62.6939 201.776 62.52C202.37 62.2729 202.982 62.073 203.606 61.9223C204.238 61.8049 204.879 61.7359 205.521 61.7158C206.042 61.7158 206.447 61.7158 206.585 61.4441C206.723 61.1724 206.479 60.8138 205.872 60.466C205.054 60.0648 204.129 59.9538 203.242 60.1507C202.356 60.3475 201.559 60.841 200.978 61.5528C200.521 62.0744 200.521 62.5526 200.712 62.6939Z" fill="#263238"/>
<path d="M180.401 60.3573C185.404 60.8259 190.423 59.6575 194.733 57.0209C199.52 54.1191 205.234 52.4454 206.585 53.3692C207.936 54.293 208.575 59.5096 213.607 60.6725C213.607 60.6725 213.979 70.6819 217.863 70.0407C221.746 69.3995 218.203 54.1082 218.203 54.1082L208.33 50.0545L197.776 48.8264L188.03 49.5546L179.167 53.0758L180.401 60.3573Z" fill="#263238"/>
<path d="M396.945 343.805C405.403 330.589 404.169 311.701 394.072 299.746C390.88 296.04 386.55 292.812 381.762 293.225C376.975 293.638 372.921 297.942 371.432 302.724C369.942 307.506 370.463 312.69 371.336 317.624C372.559 324.536 374.613 331.611 379.315 336.751C384.018 341.892 390.912 347.163 396.945 343.794" fill="#FFC060"/>
<path d="M392.263 407.437C393.786 403.594 394.086 399.359 393.119 395.332C392.153 391.306 389.97 387.693 386.88 385.005C384.933 383.375 382.39 382.125 379.964 382.831C377.539 383.538 375.826 386.092 375.485 388.689C375.29 391.317 375.725 393.955 376.751 396.373C377.996 399.818 379.677 403.274 382.56 405.491C385.444 407.708 389.455 409.784 392.263 407.491" fill="#FFC060"/>
<path d="M412.67 402.894C411.625 396.989 412.425 390.898 414.957 385.483C417.489 380.069 421.624 375.605 426.778 372.724C429.969 371.018 433.97 369.997 437.215 371.638C440.46 373.279 442.141 377.485 441.875 381.278C441.609 385.07 439.832 388.57 437.864 391.787C435.098 396.308 431.714 400.699 427.001 402.97C422.288 405.241 415.989 406.969 412.67 402.872" fill="#FFC060"/>
<path d="M411.18 371.203C407.137 357.857 414 341.664 425.448 334.002C429.001 331.622 433.502 329.97 437.47 331.513C441.439 333.056 443.854 337.73 443.992 342.164C444.13 346.598 442.449 350.858 440.524 354.879C437.843 360.455 434.406 365.965 429.182 369.171C423.958 372.377 415.542 375.572 411.18 371.203Z" fill="#FFC060"/>
<path d="M403.073 436.476C403.134 436.263 403.177 436.045 403.201 435.824C403.275 435.335 403.36 434.737 403.477 433.965C403.477 433.552 403.594 433.107 403.658 432.618C403.722 432.129 403.85 431.596 403.956 431.031C404.169 429.89 404.392 428.586 404.754 427.173C404.924 426.466 405.095 425.727 405.275 424.945C405.456 424.162 405.733 423.391 405.967 422.565C406.403 420.913 407.031 419.196 407.648 417.37C409.095 413.456 410.779 409.637 412.691 405.937C414.658 402.264 416.843 398.718 419.234 395.319C420.383 393.797 421.426 392.308 422.543 390.972C423.086 390.32 423.607 389.689 424.107 389.07L425.629 387.396C426.586 386.309 427.522 385.396 428.331 384.581C428.735 384.179 429.118 383.81 429.459 383.495C429.799 383.179 430.161 382.875 430.459 382.593L431.831 381.332C432.001 381.194 432.154 381.037 432.289 380.865C432.097 380.969 431.918 381.097 431.757 381.245L430.331 382.429L429.267 383.299L428.097 384.386C427.267 385.179 426.299 386.07 425.331 387.157L423.767 388.82L422.171 390.7C421.032 391.982 419.968 393.482 418.798 395.047C416.39 398.441 414.201 401.992 412.244 405.676C410.322 409.396 408.641 413.24 407.212 417.185C406.616 419.033 405.988 420.761 405.563 422.434C405.339 423.26 405.116 424.065 404.914 424.836C404.712 425.608 404.573 426.369 404.414 427.086C404.073 428.51 403.882 429.825 403.69 430.977C403.605 431.542 403.52 432.063 403.435 432.574C403.35 433.085 403.339 433.52 403.296 433.933C403.233 434.704 403.179 435.324 403.137 435.813C403.09 436.031 403.068 436.253 403.073 436.476Z" fill="#263238"/>
<path d="M403.371 438.867C403.385 438.78 403.385 438.692 403.371 438.606C403.371 438.399 403.371 438.139 403.307 437.834C403.243 437.106 403.158 436.117 403.041 434.867C402.977 434.215 402.913 433.498 402.839 432.694C402.765 431.89 402.754 431.053 402.711 430.14C402.648 428.303 402.477 426.216 402.53 423.902C402.53 422.75 402.53 421.532 402.53 420.272C402.53 419.011 402.658 417.707 402.722 416.348C402.807 413.631 403.169 410.751 403.499 407.719C404.366 401.154 405.703 394.663 407.499 388.298C409.391 381.973 411.734 375.798 414.51 369.823C415.862 367.095 417.096 364.476 418.468 362.15C419.139 360.976 419.734 359.813 420.405 358.748L422.32 355.705C423.501 353.727 424.756 352.075 425.799 350.575C426.32 349.836 426.799 349.13 427.267 348.5L428.576 346.826L430.384 344.489L430.863 343.881C430.97 343.74 431.023 343.663 431.012 343.653L430.821 343.837C430.693 344 430.523 344.185 430.321 344.424L428.437 346.696L427.076 348.348C426.597 348.967 426.107 349.663 425.565 350.402C424.501 351.89 423.224 353.532 422.011 355.499C421.394 356.466 420.734 357.477 420.054 358.531C419.373 359.585 418.777 360.704 418.085 361.932C416.691 364.258 415.436 366.877 414.064 369.605C411.249 375.607 408.887 381.82 406.999 388.189C405.185 394.579 403.851 401.101 403.009 407.697C402.701 410.751 402.36 413.642 402.286 416.392C402.286 417.75 402.126 419.065 402.126 420.337C402.126 421.608 402.126 422.815 402.126 423.967C402.126 426.293 402.286 428.379 402.382 430.216C402.445 431.14 402.477 431.998 402.552 432.781C402.626 433.563 402.733 434.27 402.807 434.954C402.967 436.204 403.084 437.193 403.179 437.91C403.179 438.226 403.265 438.476 403.286 438.682C403.307 438.889 403.36 438.878 403.371 438.867Z" fill="#263238"/>
<path d="M381.337 309.19C381.366 309.278 381.405 309.362 381.454 309.44L381.816 310.136L383.263 312.777C383.571 313.342 383.943 313.972 384.326 314.679L385.454 317.004C385.869 317.841 386.295 318.733 386.763 319.667C387.231 320.602 387.625 321.656 388.082 322.732C388.54 323.808 389.05 324.906 389.519 326.112C389.987 327.318 390.434 328.546 390.923 329.829C391.168 330.47 391.412 331.122 391.657 331.796C391.902 332.47 392.115 333.154 392.338 333.85C392.806 335.241 393.274 336.676 393.764 338.197C395.551 344.12 397.253 350.717 398.69 357.759C400.126 364.802 401.052 371.529 401.775 377.691C402.499 383.853 402.839 389.429 402.967 394.124C403.084 396.46 403.105 398.59 403.116 400.449C403.126 402.307 403.116 403.916 403.116 405.231C403.116 406.546 403.116 407.513 403.116 408.252V409.045C403.1 409.131 403.1 409.22 403.116 409.306C403.123 409.219 403.123 409.132 403.116 409.045C403.116 408.839 403.116 408.578 403.116 408.263C403.116 407.524 403.201 406.513 403.265 405.241C403.328 403.97 403.36 402.318 403.36 400.449C403.36 398.579 403.36 396.46 403.297 394.113C403.222 389.407 402.807 383.821 402.233 377.637C401.658 371.453 400.583 364.682 399.19 357.651C397.796 350.619 395.998 344.011 394.2 338.088L392.764 333.796C392.529 333.1 392.295 332.404 392.061 331.731C391.827 331.057 391.561 330.416 391.306 329.774C390.817 328.481 390.327 327.242 389.87 326.047C389.412 324.851 388.87 323.754 388.401 322.678C387.933 321.602 387.486 320.58 387.04 319.624L385.688 316.972L384.582 314.537C384.199 313.831 383.816 313.222 383.518 312.657L381.986 310.06C381.816 309.799 381.677 309.582 381.571 309.397C381.502 309.319 381.423 309.249 381.337 309.19Z" fill="#263238"/>
<path d="M384.22 390.309C384.474 390.869 384.773 391.407 385.114 391.917C385.731 392.928 386.582 394.428 387.582 396.264C388.582 398.101 389.71 400.405 390.774 402.981C391.951 405.783 392.988 408.645 393.881 411.555C394.738 414.472 395.449 417.432 396.009 420.424C396.519 423.195 396.87 425.706 397.073 427.825C397.275 429.944 397.402 431.661 397.456 432.857C397.45 433.476 397.5 434.094 397.604 434.704C397.666 434.087 397.688 433.466 397.668 432.846C397.668 431.65 397.668 429.922 397.466 427.792C397.269 425.292 396.95 422.804 396.509 420.337C395.432 414.282 393.646 408.382 391.189 402.763C390.19 400.476 389.079 398.241 387.859 396.069C386.795 394.21 385.912 392.743 385.231 391.721C384.93 391.225 384.592 390.752 384.22 390.309Z" fill="#263238"/>
<path d="M419.681 430.52H382.518L387.018 469.297H415.053L419.681 430.52Z" fill="#455A64"/>
<path d="M418.33 465.113L415.17 469.297H387.018L383.773 465.243L418.33 465.113Z" fill="#263238"/>
<path d="M383.965 441.92C383.965 442.084 391.678 442.214 401.19 442.214C410.702 442.214 418.415 442.084 418.415 441.92C418.415 441.757 410.712 441.638 401.19 441.638C391.668 441.638 383.965 441.768 383.965 441.92Z" fill="#FAFAFA"/>
<path d="M383.965 444.507C383.965 444.66 391.678 444.79 401.19 444.79C410.702 444.79 418.415 444.66 418.415 444.507C418.415 444.355 410.712 444.225 401.19 444.225C391.668 444.225 383.965 444.355 383.965 444.507Z" fill="#FAFAFA"/>
<path d="M384.433 447.007C384.433 447.159 391.88 447.289 401.052 447.289C410.223 447.289 417.681 447.159 417.681 447.007C417.681 446.855 410.233 446.724 401.052 446.724C391.87 446.724 384.433 446.855 384.433 447.007Z" fill="#FAFAFA"/>
<path d="M18.885 440.899C15.6224 439.329 11.9522 438.872 8.41589 439.595C6.48437 439.775 4.66587 440.605 3.24513 441.953C1.95777 443.41 1.71307 445.975 3.19195 447.224C4.15041 447.888 5.30598 448.188 6.45825 448.072C9.22448 448.072 12.2993 447.54 14.5016 449.246C15.7677 450.213 16.6295 451.822 18.119 452.3C18.8726 452.48 19.6634 452.404 20.3705 452.082C21.0775 451.76 21.6619 451.211 22.0343 450.517C22.7552 449.104 22.9152 447.462 22.4812 445.931C22.3028 444.866 21.8853 443.857 21.2614 442.984C20.6375 442.111 19.8241 441.397 18.885 440.899Z" fill="#FFC060"/>
<path d="M26.1836 426.477C24.2366 429.314 20.449 428.379 18.7361 426.64C17.0231 424.901 16.2358 422.391 15.5443 420C14.0016 414.566 12.4482 408.784 13.5972 403.209C13.8828 401.513 14.6189 399.931 15.7251 398.634C16.2846 397.997 16.9971 397.521 17.792 397.252C18.587 396.983 19.4368 396.931 20.2575 397.101C22.162 397.612 23.3429 399.525 24.2047 401.34C26.7295 406.702 28.0525 412.572 28.0775 418.522C28.0775 421.293 27.7689 424.195 26.2368 426.477" fill="#FFC060"/>
<path d="M31.5353 430.585C30.5341 429.251 29.8672 427.688 29.5927 426.03C29.3183 424.373 29.4446 422.672 29.9606 421.076C31.0238 417.884 32.9313 415.055 35.4718 412.903C38.3521 410.281 41.7059 408.257 45.3452 406.948C46.7566 406.369 48.2731 406.106 49.7924 406.176C50.5494 406.223 51.2838 406.458 51.9325 406.859C52.5811 407.26 53.1246 407.817 53.5162 408.48C54.5801 410.501 53.5162 412.958 52.4523 415.001C50.5487 418.53 48.3788 421.902 45.9623 425.086C44.0153 427.651 41.7916 430.172 38.8339 431.335C35.8761 432.498 32.7907 432.357 31.2161 430.249" fill="#FFC060"/>
<path d="M26.3219 469.362C26.2145 468.939 26.1539 468.506 26.1411 468.069C26.056 467.134 25.9389 465.95 25.8006 464.548C25.6623 463.146 25.4282 461.287 25.0346 459.385C24.5814 457.303 23.9659 455.26 23.1939 453.278C22.4329 451.304 21.4051 449.45 20.1405 447.768C19.1102 446.402 17.7944 445.288 16.289 444.507C15.2822 444 14.206 443.652 13.0972 443.475C12.6727 443.468 12.2508 443.406 11.8417 443.29C12.2662 443.245 12.694 443.245 13.1185 443.29C14.289 443.388 15.4339 443.693 16.5018 444.192C18.0835 444.946 19.4741 446.061 20.566 447.452C21.8988 449.156 22.9747 451.053 23.7578 453.082C24.5418 455.089 25.1541 457.162 25.5878 459.277C25.9136 461.008 26.1374 462.757 26.2581 464.515C26.3645 466.004 26.4071 467.221 26.4283 468.058C26.4365 468.495 26.4008 468.932 26.3219 469.362Z" fill="#263238"/>
<path d="M26.0347 466.689C26.0141 466.49 26.0141 466.29 26.0347 466.091V464.385C26.0347 462.896 26.0347 460.744 25.9602 458.092C25.8325 452.778 25.3857 447.061 24.5239 438.997C23.7046 431.39 22.6088 422.597 21.4491 416.859C21.1938 415.555 20.949 414.381 20.7043 413.36C20.4596 412.338 20.2894 411.436 20.1085 410.719C19.9277 410.001 19.8213 409.491 19.7149 409.056C19.6624 408.864 19.6268 408.667 19.6085 408.469C19.7076 408.641 19.7795 408.828 19.8213 409.023L20.3 410.664C20.5235 411.382 20.7363 412.262 20.9916 413.283C21.247 414.305 21.5342 415.457 21.8002 416.783C23.2413 423.565 24.3245 430.422 25.0452 437.323C25.907 445.398 26.3007 452.756 26.3326 458.081C26.3326 460.744 26.3326 462.896 26.2475 464.385C26.2475 465.08 26.1624 465.645 26.1411 466.102C26.1322 466.301 26.0964 466.499 26.0347 466.689Z" fill="#263238"/>
<path d="M26.0347 452.463C25.9905 451.869 25.9905 451.274 26.0347 450.68C26.0985 449.528 26.2581 447.865 26.5667 445.833C26.9524 443.45 27.471 441.092 28.12 438.769C28.8684 435.911 29.8324 433.117 31.0033 430.412C33.0194 425.421 35.903 420.844 39.5148 416.903C40.1395 416.227 40.8077 415.596 41.515 415.012C41.8235 414.74 42.0895 414.479 42.3662 414.273L43.1428 413.729C43.61 413.367 44.1045 413.044 44.6217 412.762C42.9217 414.127 41.3051 415.597 39.7808 417.163C36.2981 421.139 33.4994 425.688 31.5034 430.618C30.361 433.311 29.3908 436.078 28.5988 438.899C27.9363 441.202 27.3894 443.538 26.9603 445.898C26.5986 447.909 26.3858 449.55 26.2581 450.691C26.2238 451.286 26.1492 451.878 26.0347 452.463Z" fill="#263238"/>
<path d="M337.768 181.948L335.704 184.632C335.704 184.632 325.491 167.928 313.638 166.211C313.303 166.372 312.935 166.449 312.565 166.436C312.195 166.423 311.834 166.32 311.51 166.135L307.68 163.864C307.282 163.613 306.968 163.246 306.778 162.809C306.588 162.373 306.532 161.888 306.616 161.419C306.616 161.419 300.903 151.061 288.721 149.464L284.274 148.605L314.841 120.001L362.431 139.77L337.768 181.948Z" fill="#FFC060"/>
<path d="M342.843 179.709L339.237 184.633C339.237 184.633 330.927 165.494 310.255 164.146L330.598 142.671C330.598 142.671 345.28 173.808 342.843 179.709Z" fill="#EBEBEB"/>
<path d="M370.697 145.323C370.697 145.323 362.814 119.338 336.651 128.837L310.213 164.147C310.213 164.147 337.332 159.126 343.705 181.948L370.697 145.323Z" fill="#F5F5F5"/>
<path d="M310.255 164.146C310.255 164.146 302.084 143.736 284.242 146.247L310.255 115.36L335.79 130.054L310.255 164.146Z" fill="#EBEBEB"/>
<path d="M336.704 128.88C336.704 128.88 339.673 113.447 328.001 106.72L320.352 102.656L293.594 133.26C293.594 133.26 312.074 143.573 310.266 164.19L336.704 128.88Z" fill="#F5F5F5"/>
<path d="M310.255 164.147C310.651 163.741 311.007 163.297 311.319 162.821C312.064 161.864 313.021 160.647 314.192 159.082C316.639 155.822 319.926 151.475 323.554 146.693L332.949 134.314L335.811 130.575C336.184 130.135 336.519 129.662 336.811 129.163C336.394 129.56 336.004 129.985 335.641 130.434C334.917 131.271 333.896 132.521 332.64 134.064C330.14 137.151 326.767 141.498 323.118 146.345C319.469 151.192 316.202 155.615 313.872 158.843L311.149 162.69C310.813 163.15 310.514 163.637 310.255 164.147Z" fill="#263238"/>
<path d="M319.767 111.654C320.816 112.075 321.84 112.561 322.831 113.111C325.141 114.574 327.147 116.487 328.736 118.74C330.375 120.961 331.558 123.497 332.215 126.196C332.672 128.271 332.608 129.619 332.725 129.619C332.796 129.309 332.824 128.991 332.811 128.674C332.833 127.813 332.762 126.953 332.598 126.109C332.038 123.312 330.871 120.679 329.183 118.403C327.558 116.085 325.455 114.16 323.022 112.763C322.282 112.347 321.497 112.022 320.682 111.796C320.385 111.702 320.077 111.654 319.767 111.654Z" fill="#263238"/>
<path d="M306.584 124.566C306.584 124.674 307.787 125.229 309.553 126.533C310.578 127.294 311.535 128.145 312.415 129.076C313.487 130.226 314.446 131.482 315.277 132.825C316.083 134.179 316.76 135.61 317.298 137.096C317.722 138.316 318.042 139.57 318.256 140.846C318.618 143.019 318.564 144.432 318.671 144.432C318.75 144.113 318.786 143.784 318.777 143.454C318.798 143.074 318.798 142.693 318.777 142.313C318.771 141.804 318.732 141.296 318.66 140.792C318.495 139.476 318.202 138.18 317.788 136.923C317.258 135.406 316.577 133.95 315.756 132.575C314.904 131.204 313.913 129.929 312.798 128.772C311.878 127.835 310.87 126.994 309.787 126.261C309.375 125.974 308.949 125.709 308.51 125.468C308.168 125.271 307.813 125.1 307.446 124.957C307.179 124.785 306.889 124.653 306.584 124.566Z" fill="#263238"/>
<path d="M302.318 128.25C302.318 128.358 303.637 128.967 305.51 130.423C306.617 131.272 307.656 132.21 308.617 133.227C309.781 134.485 310.848 135.833 311.808 137.259C312.737 138.703 313.549 140.223 314.234 141.802C314.781 143.099 315.208 144.445 315.511 145.823C316.022 148.171 315.947 149.692 316.054 149.692C316.142 149.338 316.175 148.971 316.149 148.605C316.179 148.189 316.179 147.772 316.149 147.356C316.119 146.804 316.048 146.255 315.936 145.715C315.684 144.296 315.288 142.909 314.755 141.574C314.081 139.947 313.262 138.386 312.308 136.912C311.339 135.455 310.246 134.087 309.042 132.825C308.059 131.812 306.991 130.888 305.85 130.065C305.409 129.746 304.951 129.452 304.478 129.184C304.136 128.968 303.781 128.776 303.414 128.608C303.066 128.439 302.698 128.318 302.318 128.25Z" fill="#263238"/>
<path d="M299.648 131.749C299.648 131.847 300.967 132.455 302.839 133.923C303.931 134.797 304.949 135.764 305.882 136.813C307.01 138.113 308.031 139.505 308.936 140.976C309.823 142.457 310.592 144.009 311.234 145.617C311.741 146.935 312.14 148.295 312.425 149.681C312.904 152.05 312.83 153.572 312.947 153.572C313.02 153.215 313.048 152.85 313.032 152.485C313.067 152.069 313.067 151.651 313.032 151.235C313.009 150.681 312.945 150.128 312.84 149.583C312.617 148.157 312.261 146.756 311.776 145.399C311.145 143.752 310.376 142.163 309.478 140.65C308.54 139.153 307.472 137.746 306.287 136.444C305.319 135.385 304.249 134.427 303.095 133.586C302.664 133.247 302.208 132.942 301.733 132.673C301.394 132.45 301.038 132.253 300.669 132.086C300.349 131.917 300.004 131.803 299.648 131.749Z" fill="#263238"/>
<path d="M321.724 158.441C321.724 158.539 323.203 158.017 325.64 157.8C328.809 157.53 331.996 158.017 334.949 159.223C337.884 160.475 340.49 162.415 342.556 164.886C344.141 166.787 344.822 168.146 344.918 168.146C344.827 167.787 344.68 167.446 344.482 167.135C344.018 166.254 343.476 165.417 342.865 164.636C340.841 162.012 338.187 159.968 335.162 158.702C332.136 157.435 328.841 156.99 325.597 157.408C324.623 157.527 323.662 157.735 322.724 158.028C322.373 158.113 322.036 158.253 321.724 158.441Z" fill="#263238"/>
<path d="M325.225 153.985C325.225 154.083 326.704 153.561 329.14 153.344C332.311 153.047 335.506 153.535 338.453 154.769C341.4 156.003 344.012 157.945 346.067 160.43C347.652 162.332 348.333 163.745 348.418 163.69C348.328 163.331 348.18 162.99 347.982 162.68C347.518 161.798 346.977 160.962 346.365 160.18C344.341 157.557 341.688 155.512 338.662 154.246C335.636 152.98 332.341 152.534 329.097 152.953C328.124 153.072 327.162 153.279 326.225 153.572C325.873 153.658 325.536 153.797 325.225 153.985Z" fill="#263238"/>
<path d="M328.725 149.518C328.725 149.627 330.204 149.105 332.64 148.888C335.812 148.59 339.007 149.079 341.954 150.313C344.901 151.546 347.513 153.488 349.568 155.974C351.153 157.876 351.834 159.234 351.919 159.234C351.832 158.876 351.688 158.534 351.493 158.223C351.025 157.339 350.48 156.498 349.865 155.713C347.839 153.093 345.185 151.052 342.16 149.788C339.134 148.524 335.841 148.079 332.598 148.497C331.624 148.616 330.663 148.823 329.725 149.116C329.375 149.202 329.038 149.337 328.725 149.518Z" fill="#263238"/>
<path d="M332.225 145.062C332.225 145.171 333.715 144.649 336.141 144.432C339.312 144.132 342.508 144.619 345.456 145.853C348.403 147.087 351.015 149.03 353.068 151.518C354.653 153.42 355.334 154.778 355.43 154.778C355.325 154.428 355.179 154.092 354.994 153.778C354.53 152.891 353.985 152.051 353.366 151.268C351.34 148.65 348.688 146.61 345.665 145.346C342.641 144.081 339.35 143.636 336.109 144.051C335.131 144.165 334.165 144.373 333.225 144.671C332.876 144.753 332.539 144.885 332.225 145.062Z" fill="#263238"/>
<path d="M335.736 140.65C335.736 140.759 337.215 140.237 339.652 140.02C342.822 139.721 346.015 140.21 348.961 141.444C351.906 142.677 354.516 144.62 356.568 147.106C358.154 148.997 358.834 150.366 358.93 150.366C358.832 150.013 358.685 149.677 358.494 149.366C358.03 148.481 357.489 147.641 356.877 146.856C354.856 144.225 352.205 142.172 349.18 140.895C346.155 139.617 342.858 139.159 339.609 139.563C338.635 139.685 337.674 139.896 336.736 140.194C336.38 140.287 336.042 140.442 335.736 140.65Z" fill="#263238"/>
<path d="M339.237 136.15C339.237 136.248 340.716 135.738 343.152 135.52C346.329 135.215 349.531 135.699 352.484 136.933C355.438 138.167 358.055 140.114 360.111 142.606C361.696 144.497 362.377 145.866 362.473 145.866C362.38 145.508 362.233 145.167 362.037 144.856C361.57 143.976 361.029 143.14 360.42 142.356C358.391 139.72 355.728 137.668 352.69 136.399C349.652 135.13 346.343 134.689 343.088 135.118C342.114 135.24 341.153 135.451 340.216 135.748C339.871 135.83 339.541 135.966 339.237 136.15Z" fill="#263238"/>
<path d="M329.512 130.684L322.214 138.966C322.214 138.966 319.937 127.511 310.01 123.164L317.724 114.763C320.907 116.091 323.682 118.27 325.756 121.072C327.83 123.873 329.128 127.194 329.512 130.684Z" fill="#EBEBEB"/>
<path d="M303.297 46.9247L304.361 49.3482C304.361 49.3482 289.37 50.598 283.954 58.3795C283.949 58.6818 283.871 58.9781 283.726 59.2418C283.581 59.5054 283.375 59.7282 283.125 59.8902L280.209 61.792C279.897 61.9866 279.535 62.0794 279.17 62.058C278.805 62.0367 278.455 61.9022 278.167 61.6725C275.295 61.9178 272.51 62.7946 270.001 64.2428C267.492 65.691 265.32 67.6763 263.633 70.0626L261.452 72.8991L251.781 39.9257L283.508 14.3751L303.297 46.9247Z" fill="#FFC060"/>
<path d="M303.584 42.5448L305.638 46.892C305.638 46.892 289.678 45.9247 281.358 60.0748L274.06 37.9802C274.06 37.9802 300.456 38.7084 303.584 42.5448Z" fill="#EBEBEB"/>
<path d="M290.221 10.5171C290.221 10.5171 269.762 6.78936 266.814 28.6883L281.38 60.0532C281.38 60.0532 287.689 39.0998 305.435 42.7406L290.221 10.5171Z" fill="#F5F5F5"/>
<path d="M281.38 60.0533C281.38 60.0533 264.591 58.5318 259.909 72.008L248.206 42.5233L267.357 29.7969L281.38 60.0533Z" fill="#EBEBEB"/>
<path d="M266.889 28.7101C266.889 28.7101 257.473 21.1025 248.727 26.9386L243.238 30.8837L254.42 60.7815C254.42 60.7815 268.038 51.4024 281.38 60.0642L266.889 28.7101Z" fill="#F5F5F5"/>
<path d="M281.38 60.0533C281.261 59.6131 281.097 59.1869 280.89 58.7817C280.497 57.8797 279.997 56.7494 279.401 55.4127L274.358 44.3274L269.304 33.2529L267.783 29.8947C267.619 29.4696 267.408 29.0649 267.155 28.6884C267.252 29.1335 267.395 29.5669 267.58 29.9816C267.878 30.8076 268.357 31.9705 268.953 33.4159C270.145 36.2959 271.879 40.241 273.858 44.5664C275.837 48.8919 277.677 52.7826 279.05 55.5866C279.731 56.9777 280.295 58.1079 280.699 58.8469C280.875 59.2767 281.104 59.6819 281.38 60.0533Z" fill="#263238"/>
<path d="M248.749 33.8832C248.813 33.9593 249.642 33.2963 251.164 32.5247C255.128 30.51 259.696 30.1212 263.931 31.4379C265.538 31.9487 266.474 32.5247 266.517 32.3834C266.559 32.2421 266.325 32.1986 265.91 31.9378C265.32 31.5893 264.7 31.2947 264.059 31.0575C261.928 30.2566 259.651 29.9413 257.388 30.1337C255.125 30.3149 252.927 30.9894 250.94 32.1117C250.344 32.4511 249.778 32.8439 249.249 33.2854C248.919 33.6658 248.727 33.8506 248.749 33.8832Z" fill="#263238"/>
<path d="M249.6 37.4914C249.664 37.5675 250.504 36.9045 252.015 36.1329C255.979 34.1183 260.547 33.7294 264.782 35.0461C266.399 35.5569 267.325 36.1329 267.378 35.9916C267.432 35.8503 267.176 35.8069 266.761 35.546C266.172 35.1954 265.552 34.9007 264.91 34.6657C262.779 33.8631 260.502 33.5477 258.239 33.742C255.979 33.9214 253.784 34.596 251.802 35.7199C251.204 36.0567 250.638 36.4496 250.111 36.8937C249.77 37.2741 249.579 37.4588 249.6 37.4914Z" fill="#263238"/>
<path d="M251.196 41.0778C251.249 41.1647 252.09 40.4909 253.6 39.7193C255.578 38.7347 257.717 38.134 259.91 37.9478C262.103 37.7744 264.308 38.0251 266.41 38.6868C268.017 39.2085 268.953 39.7736 268.996 39.6432C269.038 39.5128 268.793 39.4476 268.378 39.1976C267.792 38.8382 267.172 38.5396 266.527 38.3064C264.397 37.5151 262.126 37.2001 259.867 37.3827C257.602 37.5601 255.402 38.2387 253.419 39.3715C252.82 39.7071 252.254 40.1001 251.728 40.5452C251.355 40.8604 251.164 41.0451 251.196 41.0778Z" fill="#263238"/>
<path d="M252.185 44.6642C252.249 44.7512 253.09 44.0774 254.6 43.3057C258.564 41.2911 263.132 40.9022 267.368 42.2189C268.985 42.7406 269.911 43.3057 269.964 43.1753C270.017 43.0449 269.762 42.9797 269.347 42.7297C268.76 42.3703 268.14 42.0718 267.495 41.8386C265.362 41.0463 263.087 40.7313 260.824 40.9148C258.563 41.0921 256.366 41.7708 254.388 42.9036C253.787 43.2365 253.22 43.6297 252.696 44.0774C252.356 44.4469 252.164 44.6316 252.185 44.6642Z" fill="#263238"/>
<path d="M253.185 48.4788C253.239 48.5549 254.079 47.8919 255.59 47.1203C257.567 46.1343 259.706 45.5335 261.899 45.3488C264.089 45.1747 266.291 45.4255 268.389 46.0878C270.006 46.5986 270.932 47.1746 270.985 47.0334C271.038 46.8921 270.783 46.8486 270.368 46.5878C269.779 46.2371 269.159 45.9424 268.517 45.7075C266.384 44.9152 264.109 44.6002 261.846 44.7837C259.602 44.9687 257.425 45.6472 255.462 46.7725C254.843 47.1023 254.258 47.4955 253.717 47.9463C253.345 48.2723 253.153 48.4462 253.185 48.4788Z" fill="#263238"/>
<path d="M254.154 52.8152C254.217 52.9021 255.122 52.174 256.782 51.3698C257.753 50.895 258.76 50.4989 259.792 50.1851C261.058 49.8216 262.349 49.5564 263.655 49.3918C264.965 49.2473 266.286 49.2146 267.602 49.294C268.679 49.3714 269.747 49.5459 270.794 49.8156C272.57 50.283 273.581 50.9024 273.634 50.772C273.433 50.5807 273.203 50.4229 272.953 50.3047C272.679 50.138 272.39 49.9961 272.092 49.8808C271.705 49.7035 271.307 49.5546 270.9 49.4353C269.861 49.1053 268.791 48.8832 267.708 48.7723C266.362 48.6665 265.009 48.6847 263.665 48.8267C262.324 48.9931 260.999 49.2805 259.707 49.6852C258.658 50.0294 257.643 50.4733 256.675 51.0111C256.306 51.2068 255.95 51.4283 255.611 51.6741C255.341 51.8441 255.084 52.0368 254.845 52.2501C254.334 52.6196 254.132 52.7935 254.154 52.8152Z" fill="#263238"/>
<path d="M255.569 55.9559C255.632 56.0428 256.537 55.3038 258.218 54.5322C259.205 54.0865 260.226 53.723 261.271 53.4454C262.554 53.1215 263.86 52.8999 265.176 52.7825C266.493 52.6729 267.817 52.6729 269.134 52.7825C270.213 52.8882 271.28 53.0882 272.326 53.3802C274.102 53.8692 275.113 54.467 275.166 54.3583C275.22 54.2496 274.943 54.1627 274.485 53.891C274.209 53.7246 273.921 53.5792 273.624 53.4563C273.236 53.2758 272.838 53.1197 272.432 52.9889C271.393 52.6439 270.324 52.4001 269.24 52.2608C267.894 52.1086 266.537 52.0831 265.187 52.1847C263.834 52.2998 262.495 52.5436 261.186 52.9129C260.119 53.2223 259.085 53.6411 258.101 54.1627C257.734 54.3544 257.379 54.5685 257.037 54.8039C256.763 54.9741 256.503 55.1668 256.26 55.3799C255.749 55.7277 255.537 55.9342 255.569 55.9559Z" fill="#263238"/>
<path d="M281.582 49.8916C281.678 49.8916 281.869 48.6961 282.593 46.9029C283.542 44.5805 284.997 42.5101 286.848 40.8495C288.743 39.2245 290.984 38.0745 293.392 37.4913C295.243 37.0348 296.435 37.0348 296.435 36.937C296.161 36.8594 295.876 36.8336 295.594 36.8609C294.826 36.8691 294.06 36.9491 293.307 37.1C290.792 37.5864 288.444 38.733 286.495 40.427C284.546 42.121 283.061 44.3041 282.188 46.7616C281.919 47.4967 281.723 48.2577 281.603 49.033C281.547 49.3158 281.54 49.6063 281.582 49.8916Z" fill="#263238"/>
<path d="M279.816 45.8162C279.912 45.8162 280.092 44.6207 280.827 42.8275C281.767 40.4892 283.24 38.4142 285.124 36.7752C287.008 35.1362 289.248 33.9807 291.657 33.405C293.509 32.9594 294.711 32.9594 294.711 32.8616C294.438 32.7839 294.153 32.7581 293.87 32.7855C293.103 32.7945 292.338 32.8708 291.583 33.0137C289.067 33.5011 286.719 34.6493 284.769 36.3453C282.82 38.0413 281.336 40.2266 280.465 42.6862C280.198 43.4228 279.998 44.1832 279.869 44.9576C279.798 45.2377 279.78 45.5291 279.816 45.8162Z" fill="#263238"/>
<path d="M278.039 41.7516C278.135 41.7516 278.326 40.5561 279.103 38.7629C280.038 36.4277 281.504 34.3537 283.38 32.7131C285.256 31.0725 287.488 29.9126 289.891 29.3295C291.743 28.8839 292.945 28.8839 292.934 28.7861C292.661 28.7085 292.376 28.6827 292.094 28.71C291.326 28.719 290.561 28.7954 289.806 28.9383C287.292 29.4302 284.946 30.5798 282.997 32.2747C281.054 33.9755 279.57 36.157 278.688 38.6108C278.423 39.3474 278.228 40.1079 278.103 40.8822C278.031 41.1658 278.01 41.4602 278.039 41.7516Z" fill="#263238"/>
<path d="M276.273 37.6653C276.369 37.6653 276.549 36.4698 277.337 34.6766C278.277 32.3366 279.752 30.2603 281.638 28.6211C283.524 26.9819 285.766 25.8275 288.178 25.2541C290.019 24.8085 291.221 24.8085 291.221 24.7107C290.948 24.633 290.663 24.6073 290.381 24.6346C289.613 24.6381 288.847 24.7145 288.093 24.8628C285.575 25.3451 283.225 26.4915 281.274 28.1882C279.324 29.8848 277.842 32.0729 276.975 34.5353C276.709 35.2687 276.51 36.0254 276.379 36.7959C276.29 37.0762 276.254 37.3712 276.273 37.6653Z" fill="#263238"/>
<path d="M274.496 33.5897C274.592 33.5897 274.783 32.3943 275.56 30.601C276.5 28.2628 277.973 26.1877 279.857 24.5487C281.741 22.9098 283.981 21.7543 286.391 21.1785C288.242 20.7329 289.444 20.7329 289.434 20.6351C289.161 20.5575 288.876 20.5317 288.593 20.559C287.825 20.557 287.059 20.6334 286.306 20.7873C283.79 21.2736 281.441 22.4215 279.491 24.1176C277.542 25.8138 276.058 27.9996 275.188 30.4598C274.93 31.1948 274.734 31.9511 274.602 32.7203C274.518 33.0015 274.482 33.2958 274.496 33.5897Z" fill="#263238"/>
<path d="M272.73 29.5034C272.826 29.5034 273.007 28.3188 273.741 26.5256C274.68 24.1868 276.153 22.1113 278.037 20.4723C279.921 18.8332 282.162 17.678 284.572 17.1031C286.423 16.6466 287.614 16.6575 287.614 16.5597C287.341 16.482 287.056 16.4563 286.774 16.4836C286.006 16.4815 285.24 16.558 284.486 16.7118C281.97 17.1982 279.621 18.346 277.672 20.0422C275.722 21.7383 274.239 23.9242 273.368 26.3843C273.1 27.1161 272.904 27.8734 272.783 28.6449C272.716 28.9256 272.698 29.2163 272.73 29.5034Z" fill="#263238"/>
<path d="M106.575 150.105L108.362 152.996C108.362 152.996 89.5517 157.267 84.0086 168.113C84.0507 168.5 84.0001 168.89 83.861 169.252C83.722 169.614 83.4987 169.935 83.2106 170.189L79.8379 173.123C79.4766 173.426 79.0335 173.609 78.5678 173.648C78.1021 173.687 77.6359 173.58 77.2313 173.341C77.2313 173.341 65.7727 175.395 60.2083 186.589L57.9527 190.643L39.9934 150.431L75.8269 112.393L106.575 150.105Z" fill="#FFC060"/>
<path d="M106.181 144.508L109.533 149.627C109.533 149.627 89.0942 151.257 80.9658 170.711L67.9219 143.965C67.9219 143.965 101.574 140.194 106.181 144.508Z" fill="#EBEBEB"/>
<path d="M83.7213 106.231C83.7213 106.231 57.1229 105.144 57.1229 133.488L80.9125 170.711C80.9125 170.711 85.3385 142.976 108.479 144.432L83.7213 106.231Z" fill="#F5F5F5"/>
<path d="M80.9657 170.711C80.9657 170.711 59.3997 171.798 55.7823 189.806L35.9292 154.463L57.9527 134.771L80.9657 170.711Z" fill="#EBEBEB"/>
<path d="M57.2187 133.51C57.2187 133.51 43.962 125.5 33.8652 134.509L27.5667 140.519L46.8984 176.514C46.8984 176.514 62.5809 162.158 81.0083 170.765L57.2187 133.51Z" fill="#F5F5F5"/>
<path d="M80.9657 170.711C80.7269 170.182 80.4421 169.677 80.1146 169.2L77.6249 165.201C75.4332 161.756 72.5181 157.148 69.2943 152.051L60.9956 138.879L58.506 134.879C58.2231 134.374 57.8993 133.894 57.5378 133.445C57.7537 133.98 58.0136 134.497 58.3145 134.988C58.8464 135.977 59.655 137.368 60.6658 139.096C62.6873 142.53 65.5705 147.225 68.8262 152.355C72.0818 157.485 75.0821 162.136 77.3377 165.396L79.9763 169.309C80.2671 169.804 80.598 170.273 80.9657 170.711Z" fill="#263238"/>
<path d="M35.0781 143.324C35.1526 143.4 36.0888 142.389 37.8762 141.15C38.9219 140.414 40.0291 139.774 41.1851 139.237C42.6025 138.593 44.0776 138.091 45.5898 137.738C47.1087 137.41 48.655 137.231 50.2073 137.205C51.4767 137.2 52.7441 137.309 53.9949 137.531C56.1228 137.911 57.3995 138.433 57.4314 138.324C57.1677 138.138 56.8769 137.995 56.5696 137.901C56.2229 137.752 55.8676 137.625 55.5057 137.52C55.0339 137.367 54.5544 137.24 54.0694 137.14C52.8 136.857 51.5063 136.704 50.2073 136.683C48.6164 136.682 47.0297 136.849 45.4727 137.183C43.9185 137.543 42.4063 138.072 40.9617 138.759C39.7928 139.337 38.6812 140.028 37.6422 140.824C37.1953 141.15 36.8336 141.498 36.4931 141.791C36.2091 142.04 35.9425 142.309 35.6951 142.596C35.4581 142.809 35.2505 143.053 35.0781 143.324Z" fill="#263238"/>
<path d="M36.7804 147.758C36.8655 147.834 37.8443 146.823 39.5785 145.584C40.6242 144.848 41.7314 144.208 42.8874 143.671C45.7208 142.353 48.796 141.664 51.9096 141.65C53.1787 141.642 54.4461 141.747 55.6972 141.965C57.8251 142.345 59.1018 142.867 59.1443 142.769C58.877 142.582 58.5826 142.439 58.2719 142.345C57.9299 142.184 57.5736 142.057 57.208 141.965C56.7339 141.805 56.2507 141.674 55.761 141.574C54.4912 141.295 53.1975 141.146 51.8989 141.128C50.3082 141.118 48.7209 141.282 47.1644 141.617C45.6136 141.982 44.1051 142.514 42.664 143.204C41.4907 143.769 40.3782 144.458 39.3445 145.258C38.9434 145.561 38.5597 145.888 38.1954 146.236C37.9062 146.479 37.6359 146.744 37.3868 147.029C37.1523 147.242 36.9482 147.487 36.7804 147.758Z" fill="#263238"/>
<path d="M39.419 152.029C39.4934 152.105 40.4297 151.094 42.2171 149.855C43.2652 149.123 44.3721 148.483 45.526 147.942C46.9452 147.303 48.4198 146.801 49.9307 146.443C51.4499 146.118 52.9962 145.943 54.5482 145.921C55.8171 145.919 57.0839 146.025 58.3358 146.236C60.4637 146.627 61.7404 147.138 61.7723 147.04C61.5068 146.857 61.2165 146.714 60.9105 146.617C60.5656 146.463 60.21 146.336 59.8466 146.236C59.3751 146.079 58.8956 145.949 58.4103 145.845C57.1404 145.567 55.8467 145.418 54.5482 145.399C52.9576 145.393 51.3708 145.557 49.8137 145.888C48.2604 146.257 46.7486 146.789 45.3025 147.475C44.1323 148.05 43.0205 148.742 41.9831 149.54C41.5798 149.836 41.196 150.16 40.834 150.507C40.5473 150.753 40.2772 151.018 40.0254 151.301C39.6105 151.735 39.387 151.996 39.419 152.029Z" fill="#263238"/>
<path d="M79.5188 157.767C79.6146 157.767 79.6252 156.202 80.2317 153.789C81.0113 150.634 82.5263 147.718 84.6474 145.29C86.7686 142.862 89.4331 140.994 92.4138 139.846C94.6906 138.955 96.2227 138.759 96.2014 138.661C95.845 138.634 95.4867 138.66 95.1374 138.737C94.1689 138.899 93.2151 139.142 92.2861 139.465C89.1883 140.539 86.4155 142.413 84.2378 144.906C82.06 147.399 80.5515 150.426 79.8593 153.692C79.6382 154.669 79.51 155.666 79.4763 156.669C79.4312 157.035 79.4455 157.406 79.5188 157.767Z" fill="#263238"/>
<path d="M76.5717 152.909C76.6674 152.909 76.6781 151.344 77.2845 148.931C78.0639 145.778 79.5776 142.863 81.6967 140.435C83.8159 138.008 86.4778 136.139 89.456 134.988C91.7434 134.097 93.2755 133.901 93.2542 133.803C92.8979 133.776 92.5396 133.802 92.1903 133.879C91.2217 134.041 90.268 134.284 89.339 134.607C86.2432 135.682 83.4726 137.557 81.2968 140.05C79.1209 142.543 77.6141 145.569 76.9228 148.834C76.7017 149.811 76.5735 150.809 76.5398 151.811C76.4844 152.176 76.4953 152.548 76.5717 152.909Z" fill="#263238"/>
<path d="M73.6246 148.051C73.7203 148.051 73.731 146.486 74.3374 144.074C75.1168 140.92 76.6305 138.005 78.7496 135.577C80.8688 133.15 83.5307 131.281 86.5089 130.13C88.7963 129.239 90.3284 129.043 90.3071 128.945C89.9507 128.919 89.5924 128.944 89.2432 129.021C88.2746 129.183 87.3209 129.426 86.3918 129.75C83.2863 130.819 80.5047 132.691 78.3177 135.184C76.1306 137.677 74.6128 140.706 73.9118 143.976C73.7014 144.955 73.5733 145.952 73.5288 146.954C73.4969 147.322 73.5294 147.694 73.6246 148.051Z" fill="#263238"/>
<path d="M70.6668 143.193C70.7732 143.193 70.7839 141.628 71.3903 139.216C72.1697 136.062 73.6834 133.147 75.8025 130.72C77.9217 128.292 80.5836 126.423 83.5618 125.272C85.8492 124.381 87.3707 124.185 87.36 124.087C87.0036 124.061 86.6453 124.086 86.2961 124.164C85.3275 124.325 84.3737 124.569 83.4447 124.892C80.3491 125.969 77.5784 127.844 75.4011 130.337C73.2239 132.829 71.714 135.854 71.0179 139.118C70.8075 140.097 70.6794 141.094 70.6349 142.096C70.5932 142.461 70.604 142.831 70.6668 143.193Z" fill="#263238"/>
<path d="M67.7197 138.335C67.8261 138.335 67.8367 136.77 68.4432 134.357C69.2226 131.204 70.7362 128.289 72.8554 125.861C74.9745 123.434 77.6364 121.565 80.6146 120.414C82.9021 119.523 84.4235 119.327 84.4129 119.229C84.0565 119.202 83.6982 119.228 83.3489 119.305C82.3801 119.466 81.4263 119.709 80.4976 120.033C77.402 121.11 74.6312 122.986 72.454 125.478C70.2768 127.971 68.7669 130.996 68.0708 134.26C67.8604 135.239 67.7322 136.236 67.6878 137.237C67.6461 137.603 67.6568 137.973 67.7197 138.335Z" fill="#263238"/>
<path d="M64.7726 133.477C64.879 133.477 64.8897 131.912 65.4961 129.499C66.2755 126.346 67.7892 123.431 69.9083 121.003C72.0275 118.576 74.6894 116.707 77.6676 115.556C79.955 114.665 81.4765 114.469 81.4658 114.371C81.1094 114.344 80.7511 114.37 80.4019 114.447C79.433 114.607 78.4792 114.851 77.5505 115.175C74.4549 116.252 71.6842 118.128 69.5069 120.62C67.3297 123.113 65.8198 126.138 65.1237 129.401C64.9133 130.381 64.7852 131.377 64.7407 132.379C64.699 132.745 64.7098 133.115 64.7726 133.477Z" fill="#263238"/>
<path d="M62.6021 152.029L69.539 162.288C69.539 162.288 58.8996 161.016 49.6434 167.037L43.2598 156.05C43.2598 156.05 53.0905 148.16 62.6447 152.029" fill="#EBEBEB"/>
<path d="M126.917 29.6119C126.641 27.991 126.856 26.3223 127.534 24.83C128.143 23.3439 129.193 22.0898 130.535 21.2436C131.259 20.8221 132.059 20.5531 132.886 20.4523C133.714 20.3515 134.553 20.421 135.354 20.6567C136.303 20.9526 137.168 21.4783 137.876 22.1891C138.066 21.2874 138.451 20.4407 139.004 19.7112C139.516 19.0368 140.158 18.4762 140.89 18.0632C141.621 17.6503 142.428 17.3938 143.259 17.3094C144.83 17.1888 146.399 17.5685 147.749 18.3962C149.139 19.2113 150.252 20.4396 150.941 21.9174C151.802 23.819 152.037 25.954 151.611 28.0034C151.044 30.132 149.981 32.0893 148.515 33.7091C146.185 36.4478 143.078 39.9365 143.078 39.9365C143.078 39.9365 139.067 38.5345 135.631 37.7629C133.516 37.3168 131.536 36.3631 129.854 34.9807C128.339 33.5572 127.31 31.6758 126.917 29.6119Z" fill="#FFC060"/>
<path d="M150.1 58.5531C150.364 57.8151 150.848 57.1802 151.484 56.7382C152.082 56.276 152.808 56.0209 153.558 56.01C154.193 56.0071 154.81 56.2187 155.314 56.6119C155.819 57.0051 156.181 57.5578 156.346 58.1836C156.764 57.7228 157.315 57.4085 157.918 57.2856C158.522 57.1627 159.148 57.2373 159.708 57.4989C160.38 57.8441 160.931 58.395 161.282 59.0748C161.67 59.7508 161.841 60.5335 161.772 61.3136C161.678 62.3061 161.271 63.2407 160.612 63.9762C159.877 64.709 158.979 65.2496 157.995 65.5521C156.388 66.0955 154.282 66.7585 154.282 66.7585C154.282 66.7585 152.973 65.2043 151.75 64.0089C150.986 63.3022 150.398 62.419 150.037 61.4332C149.756 60.4908 149.778 59.4815 150.1 58.5531Z" fill="#FFC060"/>
<path d="M300.988 219.04C300.836 218.273 300.917 217.476 301.222 216.758C301.497 216.044 301.979 215.433 302.605 215.008C303.149 214.668 303.786 214.519 304.42 214.583C305.054 214.648 305.65 214.923 306.116 215.367C306.236 214.753 306.542 214.192 306.991 213.765C307.44 213.338 308.008 213.066 308.617 212.987C309.357 212.914 310.102 213.081 310.744 213.465C311.423 213.831 311.976 214.4 312.33 215.095C312.761 215.991 312.896 217.006 312.713 217.986C312.467 219.008 311.985 219.954 311.308 220.747C310.244 222.072 308.787 223.779 308.787 223.779C308.787 223.779 306.861 223.159 305.212 222.801C304.199 222.617 303.243 222.188 302.424 221.551C301.698 220.89 301.195 220.011 300.988 219.04Z" fill="#FFC060"/>
<path d="M89.6581 220.366C89.8401 219.926 90.1431 219.548 90.5305 219.279C90.9115 218.996 91.3678 218.836 91.8392 218.823C91.8192 219.117 91.8926 219.41 92.0485 219.658C92.2044 219.906 92.4345 220.096 92.7046 220.2C92.9747 220.304 93.2704 220.315 93.5476 220.234C93.8249 220.152 94.069 219.981 94.2437 219.747C94.4737 219.645 94.7218 219.592 94.9725 219.592C95.2232 219.592 95.4713 219.645 95.7013 219.747C96.1225 219.96 96.4682 220.302 96.6908 220.725C96.9347 221.152 97.0426 221.645 96.9993 222.138C96.9367 222.762 96.6793 223.348 96.2652 223.811C95.8011 224.271 95.2354 224.611 94.6161 224.8L92.286 225.561C92.286 225.561 91.4668 224.572 90.7008 223.822C90.2238 223.382 89.8587 222.83 89.6368 222.214C89.4497 221.612 89.4572 220.964 89.6581 220.366Z" fill="#FFC060"/>
<path d="M289.274 183.872C289.441 183.408 289.746 183.009 290.147 182.731C290.523 182.438 290.982 182.277 291.455 182.274C291.705 182.274 291.953 182.328 292.182 182.431C292.41 182.534 292.616 182.684 292.785 182.872C292.986 183.095 293.131 183.363 293.211 183.654C293.396 183.453 293.621 183.294 293.87 183.187C294.099 183.088 294.345 183.037 294.594 183.037C294.842 183.037 295.089 183.088 295.317 183.187C295.741 183.401 296.088 183.748 296.307 184.176C296.551 184.599 296.659 185.089 296.615 185.578C296.555 186.203 296.297 186.79 295.881 187.252C295.42 187.715 294.853 188.055 294.232 188.241C293.232 188.588 291.902 189.001 291.902 189.001C291.902 189.001 291.083 188.023 290.317 187.273C289.841 186.828 289.476 186.273 289.253 185.654C289.077 185.072 289.085 184.449 289.274 183.872Z" fill="#FFC060"/>
<path d="M102.766 47.0332C102.945 46.5909 103.249 46.2127 103.638 45.9464C104.019 45.6625 104.476 45.5034 104.947 45.49C105.196 45.4941 105.443 45.5491 105.671 45.6517C105.899 45.7544 106.105 45.9026 106.277 46.0877C106.476 46.3099 106.618 46.5786 106.692 46.8702C106.879 46.6735 107.103 46.5181 107.351 46.4138C107.582 46.3142 107.83 46.2629 108.08 46.2629C108.331 46.2629 108.578 46.3142 108.809 46.4138C109.223 46.6438 109.563 46.9904 109.789 47.4124C110.016 47.8343 110.119 48.3139 110.086 48.7939C110.023 49.4177 109.766 50.0045 109.352 50.4675C108.888 50.9275 108.322 51.2667 107.703 51.4565L105.373 52.2173C105.373 52.2173 104.553 51.2283 103.787 50.4784C103.31 50.0382 102.945 49.4862 102.723 48.8699C102.545 48.2687 102.56 47.6252 102.766 47.0332Z" fill="#FFC060"/>
<path d="M104.883 194.598C104.797 193.172 105.142 191.753 105.873 190.534C106.547 189.315 107.577 188.343 108.82 187.752C109.885 187.281 111.072 187.178 112.2 187.461C113.328 187.744 114.334 188.395 115.065 189.317C115.322 188.561 115.736 187.872 116.278 187.295C116.787 186.768 117.396 186.352 118.067 186.072C118.738 185.792 119.458 185.654 120.182 185.665C121.55 185.723 122.865 186.221 123.938 187.089C125.074 187.927 125.929 189.104 126.385 190.458C126.939 192.188 126.939 194.053 126.385 195.783C125.693 197.552 124.599 199.128 123.193 200.38C120.906 202.554 117.874 205.195 117.874 205.195C117.874 205.195 114.554 203.575 111.65 202.51C109.868 201.907 108.252 200.879 106.936 199.511C105.753 198.141 105.033 196.419 104.883 194.598Z" fill="#FFC060"/>
</svg>
